<?xml version="1.0" encoding="iso-8859-1"?>
<!-- Generator: Adobe Illustrator 19.0.0, SVG Export Plug-In . SVG Version: 6.00 Build 0)  -->
<svg version="1.1" id="Capa_1" xmlns="http://www.w3.org/2000/svg" xmlns:xlink="http://www.w3.org/1999/xlink" x="0px" y="0px"
	 viewBox="0 0 42.21 42.21" style="enable-background:new 0 0 42.21 42.21;" xml:space="preserve">
<g>
	<g>
		<path d="M15.658,15.542c-0.366-0.507-0.965-0.733-1.511-0.733c-0.771,0-1.489,0.395-1.806,1.242
			c-0.366-0.846-0.878-1.242-1.695-1.242c-0.805,0-1.402,0.395-1.721,1.242H8.903v-0.876c-0.008-0.121-0.11-0.219-0.237-0.224H7.448
			c-0.139,0-0.252,0.107-0.252,0.241v6.704c0.009,0.12,0.109,0.213,0.234,0.221h1.307c0.139,0,0.251-0.109,0.251-0.242V18.32
			c0-0.775-0.038-1.848,0.9-1.848c0.928,0,0.807,1.1,0.807,1.848v3.554c0,0.129,0.104,0.232,0.236,0.242h1.304
			c0.141,0,0.252-0.109,0.252-0.242V18.32c0-0.381-0.012-0.947,0.121-1.285c0.134-0.338,0.465-0.549,0.781-0.549
			c0.379,0,0.671,0.127,0.768,0.577c0.062,0.269,0.037,0.974,0.037,1.257v3.554c0,0.129,0.105,0.232,0.235,0.242h1.305
			c0.139,0,0.251-0.109,0.251-0.242l0.002-4.23C15.987,16.925,16.071,16.106,15.658,15.542z"/>
	</g>
</g>
<g>
	<g>
		<path d="M32.876,14.81c-1.89,0-2.938,1.623-2.938,3.709c0,2.074,1.035,3.738,2.938,3.738c1.828,0,2.987-1.622,2.987-3.667
			C35.868,16.474,34.816,14.81,32.876,14.81z M32.876,20.875c-1.024,0-1.013-1.749-1.013-2.568c0-0.817,0.062-2.129,1.023-2.129
			c0.414,0,0.709,0.182,0.854,0.649c0.172,0.536,0.196,1.212,0.196,1.778C33.94,19.465,33.891,20.875,32.876,20.875z"/>
	</g>
</g>
<g>
	<g>
		<path d="M23.3,20.891c-0.238-0.332-0.49-0.6-0.49-1.211v-2.036c0-0.861,0.059-1.653-0.576-2.247
			c-0.501-0.481-1.332-0.65-1.967-0.65c-1.242,0-2.631,0.463-2.921,1.999c-0.031,0.164,0.087,0.25,0.194,0.274l1.266,0.136
			c0.118-0.005,0.205-0.121,0.228-0.239c0.107-0.529,0.552-0.784,1.05-0.784c0.269,0,0.574,0.099,0.731,0.34
			c0.185,0.268,0.16,0.636,0.16,0.946l-0.001,0.166c-0.757,0.087-1.747,0.142-2.456,0.454c-0.819,0.353-1.392,1.075-1.392,2.135
			c0,1.357,0.854,2.036,1.953,2.036c0.928,0,1.438-0.219,2.154-0.95c0.236,0.344,0.315,0.512,0.749,0.872
			c0.099,0.052,0.224,0.046,0.31-0.03l0.002,0.002c0.261-0.23,0.734-0.645,1-0.867C23.399,21.15,23.384,21.008,23.3,20.891z
			 M20.974,18.916c0,0.509,0.014,0.933-0.245,1.385c-0.206,0.368-0.537,0.593-0.901,0.593c-0.503,0-0.797-0.381-0.797-0.946
			c0-1.113,0.998-1.315,1.943-1.315V18.916z"/>
	</g>
</g>
<g>
	<g>
		<path d="M41.868,15.599c-0.367-0.578-0.942-0.79-1.527-0.791c-0.901,0-1.416,0.437-1.78,1.354H38.54v-1.025
			c-0.025-0.105-0.121-0.183-0.234-0.188h-1.211c-0.133,0-0.24,0.096-0.252,0.219l0.002,6.706c0,0.129,0.103,0.234,0.236,0.244
			h1.299c0.141,0,0.254-0.109,0.256-0.244v-3.608c0-0.453,0.023-0.86,0.209-1.27c0.145-0.323,0.436-0.536,0.756-0.536
			c0.9,0,0.814,1.073,0.814,1.806v3.641c0.01,0.113,0.113,0.201,0.23,0.212h1.311c0.131,0,0.236-0.095,0.254-0.212v-4.22
			C42.21,17.038,42.21,16.137,41.868,15.599z"/>
	</g>
</g>
<g>
	<g>
		<path d="M29.081,20.302c-0.75-0.422-1.621-0.546-2.449-0.525l2.228-3.176c0.205-0.286,0.322-0.465,0.322-0.603v-0.821
			c0-0.144-0.109-0.243-0.248-0.243h-4.293c-0.134,0-0.242,0.097-0.242,0.243v0.959c0,0.143,0.108,0.241,0.248,0.241h2.244
			l-2.578,3.696c-0.156,0.237-0.158,0.503-0.158,0.659v0.973c0,0.14,0.159,0.301,0.307,0.219c1.461-0.775,3.213-0.698,4.533-0.006
			c0.164,0.084,0.316-0.08,0.316-0.22v-1.024C29.296,20.537,29.251,20.396,29.081,20.302z"/>
	</g>
</g>
<g>
	<g>
		<path d="M28.251,22.729c-0.267-0.331-2.567-0.616-3.97,0.369c-0.214,0.151-0.179,0.36,0.062,0.332
			c0.789-0.093,2.549-0.304,2.861,0.096c0.313,0.401-0.349,2.057-0.646,2.795c-0.091,0.224,0.103,0.314,0.305,0.146
			C28.182,25.369,28.52,23.063,28.251,22.729z"/>
	</g>
</g>
<g>
	<g>
		<path d="M25.831,24.117c-2.748,1.167-5.737,1.729-8.457,1.729c-4.027,0-7.93-1.103-11.083-2.939
			c-0.275-0.162-0.48,0.121-0.251,0.328c2.923,2.641,6.786,4.229,11.077,4.229c3.062,0,6.615-0.963,9.069-2.771
			C26.591,24.393,26.246,23.943,25.831,24.117z"/>
	</g>
</g>
<g>
	<g>
		<path d="M6.175,20.891c-0.239-0.332-0.492-0.6-0.492-1.211v-2.036c0-0.861,0.061-1.653-0.574-2.247
			c-0.502-0.481-1.332-0.65-1.969-0.65c-1.242,0-2.628,0.463-2.921,1.999c-0.03,0.164,0.09,0.25,0.194,0.274l1.27,0.136
			c0.116-0.005,0.203-0.121,0.226-0.239c0.107-0.529,0.553-0.784,1.051-0.784c0.268,0,0.572,0.099,0.732,0.34
			c0.182,0.268,0.157,0.636,0.157,0.946v0.168c-0.756,0.088-1.746,0.143-2.456,0.455C0.577,18.393,0,19.115,0,20.175
			c0,1.357,0.856,2.036,1.955,2.036c0.93,0,1.438-0.219,2.154-0.95c0.237,0.344,0.315,0.512,0.749,0.872
			c0.098,0.052,0.222,0.046,0.309-0.03l0.004,0.002c0.26-0.23,0.733-0.645,1.001-0.867C6.278,21.148,6.26,21.008,6.175,20.891z
			 M3.849,18.916c0,0.509,0.014,0.933-0.244,1.385c-0.207,0.368-0.536,0.593-0.904,0.593c-0.501,0-0.792-0.381-0.792-0.946
			c0-1.113,0.997-1.315,1.94-1.315V18.916z"/>
	</g>
</g>
<g>
</g>
<g>
</g>
<g>
</g>
<g>
</g>
<g>
</g>
<g>
</g>
<g>
</g>
<g>
</g>
<g>
</g>
<g>
</g>
<g>
</g>
<g>
</g>
<g>
</g>
<g>
</g>
<g>
</g>
</svg>
