<?xml version="1.0" encoding="utf-8"?>
<!-- Generator: Adobe Illustrator 22.1.0, SVG Export Plug-In . SVG Version: 6.00 Build 0)  -->
<svg version="1.1" id="Layer_1" xmlns="http://www.w3.org/2000/svg" xmlns:xlink="http://www.w3.org/1999/xlink" x="0px" y="0px"
	 viewBox="0 0 200 200" style="enable-background:new 0 0 200 200;" xml:space="preserve">
<style type="text/css">
	.st0{clip-path:url(#SVGID_2_);fill:url(#SVGID_3_);}
	.st1{opacity:0.25;clip-path:url(#SVGID_2_);fill:url(#SVGID_4_);}
	.st2{opacity:0.25;clip-path:url(#SVGID_2_);fill:url(#SVGID_5_);}
	.st3{fill:#B1D792;}
</style>
<g>
	<defs>
		<rect id="SVGID_1_" x="-0.4" y="-0.3" width="200" height="203.8"/>
	</defs>
	<clipPath id="SVGID_2_">
		<use xlink:href="#SVGID_1_"  style="overflow:visible;"/>
	</clipPath>
	
		<linearGradient id="SVGID_3_" gradientUnits="userSpaceOnUse" x1="-0.3651" y1="100.5978" x2="199.6349" y2="100.5978" gradientTransform="matrix(1 0 0 -1 0 202)">
		<stop  offset="0" style="stop-color:#4D6068"/>
		<stop  offset="1" style="stop-color:#2A273C"/>
	</linearGradient>
	<rect x="-0.4" y="-0.3" class="st0" width="200" height="203.3"/>
	
		<linearGradient id="SVGID_4_" gradientUnits="userSpaceOnUse" x1="6.2038" y1="101.9311" x2="206.2038" y2="101.9311" gradientTransform="matrix(1 0 1 -1 -102 202)">
		<stop  offset="0" style="stop-color:#4D6068"/>
		<stop  offset="1" style="stop-color:#2A273C"/>
	</linearGradient>
	<polygon class="st1" points="106.1,0.1 306.1,0.1 106.1,200.1 -93.9,200.1 	"/>
	
		<linearGradient id="SVGID_5_" gradientUnits="userSpaceOnUse" x1="100" y1="102" x2="300" y2="102" gradientTransform="matrix(1 0 1 -1 -102 202)">
		<stop  offset="0" style="stop-color:#4D6068"/>
		<stop  offset="1" style="stop-color:#2A273C"/>
	</linearGradient>
	<polygon class="st2" points="200,0 400,0 200,200 0,200 	"/>
</g>
<g>
	<g>
		<path class="st3" d="M60.1,83.4c-1.9,0-3.5,0.7-4.8,2c-1.3,1.3-2,2.9-2,4.7v28.3c0,1.9,0.7,3.5,2,4.8c1.3,1.3,2.9,2,4.8,2
			c1.9,0,3.5-0.7,4.8-2c1.3-1.3,1.9-2.9,1.9-4.8V90.1c0-1.8-0.7-3.4-2-4.7C63.5,84,61.9,83.4,60.1,83.4z"/>
		<path class="st3" d="M69.4,128.5c0,2,0.7,3.7,2.1,5.1c1.4,1.4,3.1,2.1,5.1,2.1h4.9l0.1,14.9c0,1.9,0.7,3.5,2,4.8
			c1.3,1.3,2.9,2,4.7,2c1.9,0,3.5-0.7,4.8-2c1.3-1.3,2-2.9,2-4.8v-14.9h9.1v14.9c0,1.9,0.7,3.5,2,4.8c1.3,1.3,2.9,2,4.8,2
			c1.9,0,3.5-0.7,4.8-2c1.3-1.3,2-2.9,2-4.8v-14.9h4.9c2,0,3.7-0.7,5.1-2.1c1.4-1.4,2.1-3.1,2.1-5.1V84.6H69.4V128.5z"/>
		<path class="st3" d="M114.6,57.9l4.7-8.6c0.3-0.6,0.2-1-0.3-1.3c-0.6-0.3-1-0.1-1.3,0.4l-4.7,8.7c-4.2-1.8-8.6-2.8-13.2-2.8
			c-4.7,0-9.1,0.9-13.2,2.8l-4.7-8.7c-0.3-0.5-0.7-0.7-1.3-0.4c-0.5,0.3-0.6,0.7-0.3,1.3l4.7,8.6c-4.7,2.4-8.5,5.8-11.3,10.1
			c-2.8,4.3-4.2,9.1-4.2,14.2h60.9c0-5.1-1.4-9.9-4.2-14.2C123,63.7,119.3,60.4,114.6,57.9z M87.6,70.5c-0.5,0.5-1.1,0.8-1.8,0.8
			c-0.7,0-1.3-0.3-1.8-0.8c-0.5-0.5-0.7-1.1-0.7-1.8c0-0.7,0.2-1.3,0.7-1.8c0.5-0.5,1.1-0.8,1.8-0.8c0.7,0,1.3,0.3,1.8,0.8
			c0.5,0.5,0.8,1.1,0.8,1.8S88.1,70,87.6,70.5z M115.3,70.5c-0.5,0.5-1.1,0.8-1.8,0.8c-0.7,0-1.3-0.3-1.8-0.8
			c-0.5-0.5-0.8-1.1-0.8-1.8c0-0.7,0.3-1.3,0.8-1.8s1.1-0.8,1.8-0.8c0.7,0,1.3,0.3,1.8,0.8c0.5,0.5,0.7,1.1,0.7,1.8
			C116,69.4,115.8,70,115.3,70.5z"/>
		<path class="st3" d="M144,85.3c-1.3-1.3-2.9-1.9-4.8-1.9c-1.8,0-3.4,0.6-4.7,1.9c-1.3,1.3-2,2.9-2,4.8v28.3c0,1.9,0.7,3.5,2,4.8
			c1.3,1.3,2.9,2,4.7,2c1.9,0,3.5-0.7,4.8-2c1.3-1.3,2-2.9,2-4.8V90.1C146,88.2,145.3,86.6,144,85.3z"/>
	</g>
</g>
</svg>
