<?xml version="1.0" encoding="utf-8"?>
<!-- Generator: Adobe Illustrator 22.1.0, SVG Export Plug-In . SVG Version: 6.00 Build 0)  -->
<svg version="1.1" id="Layer_1" xmlns="http://www.w3.org/2000/svg" xmlns:xlink="http://www.w3.org/1999/xlink" x="0px" y="0px"
	 viewBox="0 0 500 500" style="enable-background:new 0 0 500 500;" xml:space="preserve">
<style type="text/css">
	.st0{clip-path:url(#SVGID_2_);}
	.st1{fill:url(#SVGID_3_);}
	.st2{opacity:5.000000e-02;}
	.st3{fill:#F1F2F2;}
</style>
<g>
	<defs>
		<rect id="SVGID_1_" x="-0.7" width="500.7" height="500.7"/>
	</defs>
	<clipPath id="SVGID_2_">
		<use xlink:href="#SVGID_1_"  style="overflow:visible;"/>
	</clipPath>
	<g class="st0">
		<linearGradient id="SVGID_3_" gradientUnits="userSpaceOnUse" x1="-0.7153" y1="250.3577" x2="500" y2="250.3577">
			<stop  offset="0" style="stop-color:#4C5F68"/>
			<stop  offset="1" style="stop-color:#2A273C"/>
		</linearGradient>
		<rect x="-0.7" class="st1" width="500.7" height="500.7"/>
		<g class="st2">
			<g>
				<path class="st3" d="M274.1,328.6c-5.4,0-10,1.9-13.8,5.7c-3.8,3.8-5.7,8.3-5.7,13.6v81.1c0,5.4,1.9,10,5.7,13.8
					c3.8,3.8,8.4,5.7,13.8,5.7c5.4,0,10-1.9,13.7-5.7c3.7-3.8,5.6-8.4,5.6-13.8v-81.1c0-5.3-1.9-9.8-5.7-13.6
					C283.9,330.5,279.4,328.6,274.1,328.6z"/>
				<path class="st3" d="M300.9,457.7c0,5.8,2,10.7,6,14.7c4,4,8.9,6,14.7,6h14l0.2,42.8c0,5.4,1.9,10,5.7,13.8
					c3.8,3.8,8.3,5.7,13.6,5.7c5.4,0,10-1.9,13.8-5.7c3.8-3.8,5.7-8.4,5.7-13.8v-42.8h26v42.8c0,5.4,1.9,10,5.7,13.8
					c3.8,3.8,8.4,5.7,13.8,5.7c5.4,0,10-1.9,13.8-5.7c3.8-3.8,5.7-8.4,5.7-13.8v-42.8h14.1c5.7,0,10.5-2,14.5-6c4-4,6-8.9,6-14.7
					V332.2H300.9V457.7z"/>
				<path class="st3" d="M430.2,255.8l13.4-24.7c0.9-1.6,0.6-2.9-0.9-3.8c-1.6-0.8-2.9-0.4-3.8,1.1l-13.6,24.9
					c-11.9-5.3-24.6-7.9-37.9-7.9c-13.3,0-26,2.6-37.9,7.9l-13.6-24.9c-0.9-1.5-2.1-1.9-3.8-1.1c-1.5,0.9-1.8,2.1-0.9,3.8l13.4,24.7
					c-13.6,6.9-24.4,16.6-32.4,28.9c-8,12.4-12.1,25.9-12.1,40.6h174.4c0-14.7-4-28.2-12.1-40.6
					C454.4,272.4,443.6,262.8,430.2,255.8z M352.8,291.8c-1.4,1.4-3.2,2.2-5.2,2.2s-3.7-0.7-5.1-2.2c-1.4-1.4-2.1-3.2-2.1-5.2
					c0-2,0.7-3.7,2.1-5.2c1.4-1.4,3.1-2.2,5.1-2.2c2,0,3.7,0.7,5.2,2.2c1.4,1.4,2.2,3.2,2.2,5.2C355,288.6,354.2,290.3,352.8,291.8z
					 M432.3,291.8c-1.4,1.4-3.1,2.2-5.1,2.2c-2,0-3.7-0.7-5.2-2.2c-1.4-1.4-2.2-3.2-2.2-5.2c0-2,0.7-3.7,2.2-5.2
					c1.4-1.4,3.2-2.2,5.2-2.2c2,0,3.7,0.7,5.1,2.2c1.4,1.4,2.1,3.2,2.1,5.2C434.3,288.6,433.6,290.3,432.3,291.8z"/>
				<path class="st3" d="M514.4,334.2c-3.8-3.7-8.4-5.6-13.8-5.6c-5.3,0-9.8,1.9-13.6,5.6c-3.8,3.7-5.7,8.3-5.7,13.7v81.1
					c0,5.4,1.9,10,5.7,13.8c3.8,3.8,8.3,5.7,13.6,5.7c5.4,0,10-1.9,13.8-5.7c3.8-3.8,5.7-8.4,5.7-13.8v-81.1
					C520.1,342.4,518.2,337.9,514.4,334.2z"/>
			</g>
		</g>
		<g class="st2">
			<g>
				<path class="st3" d="M-44.9,400.5c-3.5,0-6.5,1.2-8.9,3.7c-2.4,2.5-3.7,5.4,6.3-11.2v52.7c-10,23.5-8.8,26.5-6.3,28.9
					c2.4,2.5,5.4,3.7,8.9,3.7c3.5,0,6.5-1.2,8.9-3.7c2.4-2.5,3.6-5.4,3.6-8.9V413c0-3.4-1.2-6.4-3.7-8.8
					C-38.5,401.8-41.5,400.5-44.9,400.5z"/>
				<path class="st3" d="M-17.5,464.5c0,3.8,1.3,6.9,3.9,9.6c2.6,2.6,5.8,3.9,9.6,3.9H5l0.1,27.8c0,3.5,1.2,6.5,3.7,8.9
					c2.4,2.5,5.4,3.7,8.8,3.7c3.5,0,6.5-1.2,8.9-3.7c2.5-2.5,3.7-5.4,3.7-8.9v-27.8h16.9v27.8c0,3.5,1.2,6.5,3.7,8.9
					c2.5,2.5,5.4,3.7,8.9,3.7c3.5,0,6.5-1.2,8.9-3.7c2.4-2.5,3.7-5.4,3.7-8.9v-27.8h9.2c3.7,0,6.8-1.3,9.4-3.9
					c2.6-2.6,3.9-5.8,3.9-9.6v-81.6H-17.5V464.5z"/>
				<path class="st3" d="M66.5,333.3l8.7-16c0.6-1.1,0.4-1.9-0.6-2.4c-1.1-0.5-1.9-0.2-2.4,0.7l-8.8,16.2c-7.8-3.4-16-5.1-24.6-5.1
					c-8.7,0-16.9,1.7-24.6,5.1l-8.8-16.2c-0.6-1-1.4-1.2-2.4-0.7c-1,0.6-1.2,1.4-0.6,2.4l8.7,16c-8.8,4.5-15.8,10.8-21.1,18.8
					c-5.2,8-7.8,16.8-7.8,26.4H95.3c0-9.6-2.6-18.4-7.8-26.4C82.2,344,75.3,337.7,66.5,333.3z M16.2,356.6c-0.9,0.9-2.1,1.4-3.4,1.4
					s-2.4-0.5-3.3-1.4c-0.9-0.9-1.3-2.1-1.3-3.4c0-1.3,0.5-2.4,1.3-3.4c0.9-0.9,2-1.4,3.3-1.4c1.3,0,2.4,0.5,3.4,1.4
					c0.9,0.9,1.4,2.1,1.4,3.4S17.2,355.7,16.2,356.6z M67.9,356.6c-0.9,0.9-2,1.4-3.3,1.4c-1.3,0-2.4-0.5-3.4-1.4
					c-0.9-0.9-1.4-2.1-1.4-3.4c0-1.3,0.5-2.4,1.4-3.4c0.9-0.9,2.1-1.4,3.4-1.4c1.3,0,2.4,0.5,3.3,1.4c0.9,0.9,1.3,2.1,1.3,3.4
					C69.2,354.5,68.8,355.7,67.9,356.6z"/>
				<path class="st3" d="M121.3,384.2c-2.4-2.4-5.4-3.6-8.9-3.6c-3.4,0-6.4,1.2-8.8,3.6c-2.5,2.4-3.7,5.4-3.7,8.9v52.7
					c0,3.5,1.2,6.5,3.7,8.9c2.4,2.5,5.4,3.7,8.8,3.7c3.5,0,6.5-1.2,8.9-3.7c2.5-2.5,3.7-5.4,3.7-8.9V393
					C125,389.5,123.7,386.6,121.3,384.2z"/>
			</g>
		</g>
	</g>
</g>
</svg>
