<svg width="34" height="33" viewBox="0 0 34 33" fill="none" xmlns="http://www.w3.org/2000/svg">
<path d="M12.1733 6.12711H21.861V3.5201H12.1733V6.12711ZM5.51304 6.12711V32.1972H4.30208C3.14158 32.1972 2.14506 31.7491 1.31252 30.853C0.479988 29.9568 0.0637207 28.8841 0.0637207 27.6349V10.6894C0.0637207 9.44018 0.479988 8.36751 1.31252 7.47135C2.14506 6.57519 3.14158 6.12711 4.30208 6.12711H5.51304ZM26.7049 6.12711V32.1972H7.32948V6.12711H9.75141V2.86834C9.75141 2.32522 9.928 1.86356 10.2812 1.48337C10.6344 1.10318 11.0633 0.913086 11.5678 0.913086H22.4665C22.9711 0.913086 23.3999 1.10318 23.7531 1.48337C24.1063 1.86356 24.2829 2.32522 24.2829 2.86834V6.12711H26.7049ZM33.9706 10.6894V27.6349C33.9706 28.8841 33.5544 29.9568 32.7218 30.853C31.8893 31.7491 30.8928 32.1972 29.7323 32.1972H28.5213V6.12711H29.7323C30.8928 6.12711 31.8893 6.57519 32.7218 7.47135C33.5544 8.36751 33.9706 9.44018 33.9706 10.6894Z" fill="url(#paint0_linear)"/>
<defs>
<linearGradient id="paint0_linear" x1="4.89403" y1="32.1972" x2="32.9288" y2="32.1972" gradientUnits="userSpaceOnUse">
<stop stop-color="#E74E4B"/>
<stop offset="1" stop-color="#FB8133"/>
</linearGradient>
</defs>
</svg>
