<svg width="44" height="34" viewBox="0 0 44 34" fill="none" xmlns="http://www.w3.org/2000/svg">
<path d="M41.3227 7.11578L35.1673 10.608V3.40562C35.1673 1.73297 33.7872 0.373047 32.0896 0.373047H3.62091C1.92337 0.373047 0.543213 1.73297 0.543213 3.40562V30.6988C0.543213 32.3714 1.92337 33.7313 3.62091 33.7313H32.0896C33.7872 33.7313 35.1673 32.3714 35.1673 30.6988V23.4964L41.3227 26.9886C42.347 27.5714 43.631 26.8417 43.631 25.6808V8.42831C43.631 7.26267 42.347 6.53296 41.3227 7.11578ZM13.2387 9.47076C13.2387 9.67925 13.0656 9.84983 12.854 9.84983H7.46803C7.25644 9.84983 7.08332 9.67925 7.08332 9.47076V7.19633C7.08332 6.98784 7.25644 6.81726 7.46803 6.81726H12.854C13.0656 6.81726 13.2387 6.98784 13.2387 7.19633V9.47076ZM40.1686 22.4066L35.1673 19.573V14.5361L40.1686 11.6978V22.4066Z" fill="url(#paint0_linear)"/>
<defs>
<linearGradient id="paint0_linear" x1="6.68142" y1="33.7313" x2="42.3071" y2="33.7313" gradientUnits="userSpaceOnUse">
<stop stop-color="#E74E4B"/>
<stop offset="1" stop-color="#FB8133"/>
</linearGradient>
</defs>
</svg>
