<?xml version="1.0" encoding="iso-8859-1"?>
<!-- Generator: Adobe Illustrator 19.0.0, SVG Export Plug-In . SVG Version: 6.00 Build 0)  -->
<svg version="1.1" id="Layer_1" xmlns="http://www.w3.org/2000/svg" xmlns:xlink="http://www.w3.org/1999/xlink" x="0px" y="0px"
	 viewBox="0 0 512 512" style="enable-background:new 0 0 512 512;" xml:space="preserve">
<g>
	<g>
		<path d="M451.457,138.456L317.892,4.891C314.903,1.9,310.674,0,306.087,0H72.348c-9.22,0-16.696,7.475-16.696,16.696v478.609
			c0,9.22,7.475,16.696,16.696,16.696h367.304c9.22,0,16.696-7.475,16.696-16.696V150.261
			C456.348,146.02,454.668,141.666,451.457,138.456z M322.783,57.002l38.281,38.281l38.282,38.282h-76.563V57.002z M422.957,478.609
			H89.043V33.391h200.348v116.87c0,9.22,7.475,16.696,16.696,16.696h116.87V478.609z"/>
	</g>
</g>
<g>
	<g>
		<path d="M372.87,244.87H139.13c-9.22,0-16.696,7.475-16.696,16.696c0,9.22,7.475,16.696,16.696,16.696H372.87
			c9.22,0,16.696-7.475,16.696-16.696C389.565,252.345,382.09,244.87,372.87,244.87z"/>
	</g>
</g>
<g>
	<g>
		<path d="M372.87,311.652H139.13c-9.22,0-16.696,7.475-16.696,16.696s7.475,16.696,16.696,16.696H372.87
			c9.22,0,16.696-7.475,16.696-16.696S382.09,311.652,372.87,311.652z"/>
	</g>
</g>
<g>
	<g>
		<path d="M272.696,378.435H139.13c-9.22,0-16.696,7.475-16.696,16.696s7.475,16.696,16.696,16.696h133.565
			c9.22,0,16.696-7.475,16.696-16.696S281.916,378.435,272.696,378.435z"/>
	</g>
</g>
<g>
</g>
<g>
</g>
<g>
</g>
<g>
</g>
<g>
</g>
<g>
</g>
<g>
</g>
<g>
</g>
<g>
</g>
<g>
</g>
<g>
</g>
<g>
</g>
<g>
</g>
<g>
</g>
<g>
</g>
</svg>
