<?xml version="1.0" encoding="utf-8"?>
<!-- Generator: Adobe Illustrator 22.1.0, SVG Export Plug-In . SVG Version: 6.00 Build 0)  -->
<svg version="1.1" id="Layer_1" xmlns="http://www.w3.org/2000/svg" xmlns:xlink="http://www.w3.org/1999/xlink" x="0px" y="0px"
	 viewBox="0 0 150 150" style="enable-background:new 0 0 150 150;" xml:space="preserve">
<style type="text/css">
	.st0{fill:#FFCF59;}
	.st1{fill:#FFC255;}
	.st2{fill:#FF9C43;}
	.st3{fill:#86AA71;}
	.st4{fill:#9CCE82;}
	.st5{fill:#333333;}
	.st6{fill:#F0C087;}
	.st7{fill:#FAD393;}
	.st8{fill:#EDB769;}
	.st9{fill:#474F72;}
	.st10{fill:#3A4061;}
	.st11{fill:#F49E2C;}
	.st12{fill:#493230;}
	.st13{fill:#3F2725;}
	.st14{fill:#D29B6E;}
	.st15{fill:#2D2D2D;}
	.st16{fill:#E6AF78;}
</style>
<path id="SVGCleanerId_0" class="st0" d="M121.2,131.7h-3.4h-8.1h-3.4c-4.5,0-8.2,3.7-8.2,8.2v2.7c0,1.3,1,2.3,2.3,2.3H127
	c1.3,0,2.3-1,2.3-2.3v-2.7C129.4,135.4,125.7,131.7,121.2,131.7z"/>
<g>
	<path id="SVGCleanerId_0_1_" class="st1" d="M121.2,131.7h-3.4h-8.1h-3.4c-4.5,0-8.2,3.7-8.2,8.2v2.7c0,1.3,1,2.3,2.3,2.3H127
		c1.3,0,2.3-1,2.3-2.3v-2.7C129.4,135.4,125.7,131.7,121.2,131.7z"/>
</g>
<path class="st2" d="M117.8,131.7h-1.1h-7h-3.1h-0.3c-4.5,0-8.2,3.7-8.2,8.2v2.7c0,1.3,1,2.3,2.3,2.3h10.5c-1.3,0-2.3-1-2.3-2.3
	v-2.7c0,0,0,0,0-0.2c0-0.8,1-1.5,1.8-1c1.1,0.6,2.4,1,3.7,1c3.9-0.2,7-3.4,7-7.3v-0.8h-3.3V131.7z"/>
<path class="st3" d="M41.6,131.7h-3.4H30h-3.4c-4.5,0-8.2,3.7-8.2,8.2v3.9c0,0.6,0.5,1.1,1.1,1.1h29.1c0.6,0,1.1-0.5,1.1-1.1v-3.9
	C49.9,135.4,46.2,131.7,41.6,131.7z"/>
<path class="st4" d="M38.2,131.7h-1.1H30h-2.6h-1c-4.5,0-8.2,3.7-8.2,8.2v3.9c0,0.6,0.5,1.1,1.1,1.1h10.5c-0.6,0-1.1-0.5-1.1-1.1
	v-3.9l0,0c0-1.1,1.3-1.8,2.3-1.3s2.1,0.8,3.4,0.6c3.6-0.2,6.1-3.2,6.1-6.8v-0.8h-2.3V131.7z"/>
<path class="st5" d="M118.1,72.5h-17.9v11.3v16h30.1h6.1v-9.1C136.2,80.7,128.1,72.5,118.1,72.5z"/>
<path class="st6" d="M130.1,110.2V99.7h4.5c2.9,0,5.3,2.4,5.3,5.3c0,2.9-2.4,5.3-5.3,5.3L130.1,110.2L130.1,110.2z"/>
<path class="st7" d="M113.7,134.1c-2.6,0-4.5-2.1-4.5-4.5v-8.2l2.4,0.3c0.8,0.2,1.5,0.2,2.1,0.2s1.5,0,2.1-0.2l2.4-0.3v8.2
	C118.3,132,116.2,134.1,113.7,134.1z"/>
<path class="st8" d="M113.6,129.4v-7.8c-0.6,0-1.3,0-2.1-0.2l-2.4-0.3v8.2c0,2.6,2.1,4.5,4.5,4.5c0.8,0,1.6-0.2,2.3-0.6
	C114.5,132.6,113.6,131.2,113.6,129.4z"/>
<path class="st6" d="M128.8,89.8l-1.3,0.5c-1.9,0.8-4,1.3-6.1,1.3c-4.5,0-8.7-1.9-11.2-5l-0.8-1.1l-1.3,0.3
	c-0.3,0.2-0.8,0.2-1.1,0.2l0,0l-3.1,0.2h-6.8v7.9v14.7v0.2v0.2c0,9.2,7.6,16.8,17,16.7c9.2-0.2,16.5-7.8,16.5-17V91.1
	C130.4,90.1,129.6,89.5,128.8,89.8z"/>
<path class="st6" d="M128.8,89.8l-1.3,0.5c-1.9,0.8-4,1.3-6.1,1.3c-4.5,0-8.7-1.9-11.2-5l-0.8-1.1l-1.3,0.3
	c-0.3,0.2-0.8,0.2-1.1,0.2l0,0l-3.1,0.2h-6.8v6.6v1.3v14.7v0.2v0.2c0,9.2,7.6,16.8,17,16.7c2.1,0,4-0.5,5.8-1.1
	c-6.1-2.4-10.5-8.4-10.7-15.5v-0.2v-0.2V94v-0.5c0-0.5,0.6-0.6,1-0.3l0,0c2.4,3.2,6.6,5,11.2,5c2.1,0,4.2-0.5,6.1-1.3l1.3-0.5
	c0.8-0.3,1.6,0.3,1.6,1.1v-6.6C130.4,90.1,129.6,89.5,128.8,89.8z"/>
<path class="st9" d="M82,126.2h-4.4h-7.8h-4.4c-5.2,0-9.5,4.2-9.5,9.5v7.1c0,1.3,1,2.3,2.3,2.3h30.9c1.3,0,2.3-1,2.3-2.3v-7.1
	C91.6,130.4,87.4,126.2,82,126.2z"/>
<path class="st10" d="M69.9,145.1c-1.3,0-2.3-1-2.3-2.3v-7.1l0,0c0-1.5,1.6-2.4,2.9-1.6c1.1,0.6,2.4,1,3.7,1
	c3.7-0.2,6.8-3.4,6.8-7.3v-1.5h-3.2h-0.6h-7.1h-3.2h-1.1c-5.2,0-9.5,4.2-9.5,9.5v7.1c0,1.3,1,2.3,2.3,2.3h30.9l0,0L69.9,145.1z"/>
<path id="SVGCleanerId_1" class="st11" d="M46.2,71.7c-1.8-0.6-3.6-1-5.5-1c-3.4,0-5.5,1.1-5.5,1.1c-0.5,0.2-0.8,0.5-1.3,0.8
	c-0.6,0.5-1.5,0.8-2.4,0.8c-0.8,0-1.6-0.3-2.4-0.6c-2.1-1.5-4.7-2.1-7.3-2.1c-6.6,0-12,4.5-12,10.2c0,0.2,0,0.5,0,0.6
	c0,0.3,0,0.5,0,0.6c0,1.3,0.3,2.6,0.8,3.9c0,0.3-0.2,0.5-0.2,0.8c-0.3,1.3-0.5,2.7-0.5,4.2v10.3h38V84V71.9L46.2,71.7z"/>
<g>
	<path id="SVGCleanerId_1_1_" class="st12" d="M46.2,71.7c-1.8-0.6-3.6-1-5.5-1c-3.4,0-5.5,1.1-5.5,1.1c-0.5,0.2-0.8,0.5-1.3,0.8
		c-0.6,0.5-1.5,0.8-2.4,0.8c-0.8,0-1.6-0.3-2.4-0.6c-2.1-1.5-4.7-2.1-7.3-2.1c-6.6,0-12,4.5-12,10.2c0,0.2,0,0.5,0,0.6
		c0,0.3,0,0.5,0,0.6c0,1.3,0.3,2.6,0.8,3.9c0,0.3-0.2,0.5-0.2,0.8c-0.3,1.3-0.5,2.7-0.5,4.2v10.3h38V84V71.9L46.2,71.7z"/>
</g>
<path class="st13" d="M26.4,86.7c0-0.3,0.2-0.5,0.2-0.8c-0.5-1.3-0.8-2.6-0.8-3.9c0-0.2,0-0.5,0-0.6s0-0.5,0-0.6
	c0-3.1,1.6-5.8,4-7.6C29.5,73,29.3,73,29,72.8c-2.1-1.5-4.7-2.1-7.3-2.1c-6.6,0-12,4.5-12,10.2c0,0.2,0,0.5,0,0.6c0,0.3,0,0.5,0,0.6
	c0,1.3,0.3,2.6,0.8,3.9c0,0.3-0.2,0.5-0.2,0.8C10,88.1,9.8,89.5,9.8,91v10.3h16V91C26.1,89.5,26.3,88,26.4,86.7z"/>
<path class="st14" d="M13.2,110.2c-2.9,0-5.3-2.4-5.3-5.3c0-2.9,2.4-5.3,5.3-5.3h4.5V110L13.2,110.2L13.2,110.2z"/>
<path class="st15" d="M96.4,63l-0.6-0.8c0-3.2-2.4-6.3-6.5-8.4c-4-2.1-9.4-3.4-15.2-3.4S63,51.5,58.9,53.7s-6.5,5.3-6.5,8.4L51.8,63
	c-2.6,2.6-3.9,6-3.9,9.5V84h5.7h41.2h5.7V72.5C100.5,68.9,99,65.5,96.4,63z"/>
<path class="st5" d="M72.3,63l0.6-0.8c0-3.2,2.4-6.3,6.5-8.4c1.5-0.8,3.1-1.5,4.9-1.9c-3.1-1-6.6-1.5-10.3-1.5
	c-5.8,0-11.2,1.1-15.2,3.4s-6.5,5.3-6.5,8.4L51.6,63c-2.6,2.6-3.9,6-3.9,9.5V84h5.7h14.9V72.5C68.3,68.9,69.8,65.5,72.3,63z"/>
<path class="st6" d="M34.2,135.4c-2.6,0-4.5-2.1-4.5-4.5V123l2.4,0.3c0.8,0.2,1.5,0.2,2.1,0.2s1.5,0,2.1-0.2l2.4-0.3v7.9
	C38.7,133.3,36.6,135.4,34.2,135.4z"/>
<path class="st14" d="M33.9,130.9v-7.6c-0.6,0-1.1,0-1.8-0.2l-2.4-0.3v7.9c0,2.6,2.1,4.5,4.5,4.5c0.8,0,1.5-0.2,2.1-0.5
	C34.8,134.1,33.9,132.5,33.9,130.9z"/>
<path class="st6" d="M44.5,86.1h-3.4c-0.3,0-0.8,0-1.1-0.2l-1.3-0.3l-0.8,1.1c-2.4,3.2-6.6,5-11.2,5c-2.1,0-4.2-0.5-6.1-1.3
	l-1.9-0.8c-0.5-0.2-1.1,0.2-1.1,0.6v18.4c0,9.2,7.3,16.8,16.5,17c9.4,0.2,17-7.4,17-16.7v-15v-7.8L44.5,86.1z"/>
<path class="st14" d="M44.5,86.1h-3.4c-0.3,0-0.8,0-1.1-0.2l-1.3-0.3l-0.8,1.1c-1.9,2.6-5.2,4.4-8.7,4.9l0,0l0,0
	c-0.2,0-0.5,0-0.6,0.2c-0.2,0-0.2,0-0.3,0c-0.2,0-0.3,0-0.5,0s-0.2,0-0.3,0c-0.3,0-0.5,0-0.8,0c-2.1,0-4.2-0.5-6.1-1.3l-1.9-0.8
	c-0.5-0.2-1.1,0.2-1.1,0.6v6.5v12c0,9.1,7.1,16.7,16.2,17c2.3,0,4.4-0.3,6.3-1c-6.5-2.4-11-8.7-11-15.8v-5.3c0-2.9,1.6-5.7,4.4-6.8
	c1.8-0.8,3.2-2.1,4.5-3.6l0,0c0.5-0.6,1.3-1,2.3-0.8l0,0c0.3,0.2,0.8,0.2,1.1,0.2h3.4l6.3,0.2v-6.5L44.5,86.1z"/>
<path class="st16" d="M48.9,94.2c-2.9,0-5.3-2.4-5.3-5.3s2.4-5.3,5.3-5.3h4.7V94L48.9,94.2L48.9,94.2z"/>
<path class="st6" d="M74,128.8c-2.6,0-4.7-2.1-4.7-4.7v-10.5l2.4,0.3c1,0.2,1.8,0.2,2.6,0.2c0.6,0,1.5,0,2.3-0.2l2.4-0.3v10.5
	C78.6,126.7,76.5,128.8,74,128.8z"/>
<path class="st16" d="M74,124.1v-10c-0.8,0-1.5,0-2.4-0.2l-2.4-0.3v10.5c0,2.6,2.1,4.7,4.7,4.7c0.8,0,1.6-0.2,2.4-0.6
	C74.8,127.3,74,125.9,74,124.1z"/>
<path class="st16" d="M94.7,94.2V83.7h4.7c2.9,0,5.3,2.4,5.3,5.3s-2.4,5.3-5.3,5.3L94.7,94.2L94.7,94.2z"/>
<path class="st6" d="M74,117.4c-11.5-0.2-20.7-9.7-20.7-21.2V72.5c0-0.8,0.2-1.5,0.3-2.3l0,0c0.5-1.5,2.1-1.9,3.2-1.1l0,0
	c4,3.1,10.3,4.7,17.3,4.7c6.8,0,13.3-1.8,17.3-4.7l0,0c1.1-0.8,2.9-0.3,3.2,1.1l0,0c0.2,0.6,0.3,1.5,0.3,2.3v24.1
	C95,108.2,85.4,117.6,74,117.4z"/>
<path class="st16" d="M94.7,70.2c-0.3-1.5-1.8-2.1-3.1-1.3l-0.3,0.2c-4,2.9-10.5,4.7-17.3,4.7c-7,0-13.1-1.8-17.3-4.7
	c-1.1-0.8-2.9-0.3-3.2,1.1l0,0c-0.2,0.6-0.3,1.5-0.3,2.3v23.8c0,11.2,8.7,20.5,19.7,21.2c2.6,0.2,5.2-0.2,7.4-1
	c-7.8-3.2-13.3-11-13.3-20v-8.1c0-3.7,3.1-6.6,6.8-6.6l0,0c7,0,13.6-1.8,17.6-4.9l0,0c1.1-0.8,2.6-0.5,3.2,0.6v-5
	c0-0.5-0.2-1.5-0.2-1.9L94.7,70.2z"/>
<g>
	<path class="st9" d="M98.9,4.8c-8.1,0.3-14.4,7.1-14.4,15c0,2.4,0.6,4.7,1.6,6.8l-1.6,7.8c-0.2,0.5,0.3,0.8,0.6,0.6l7.6-1.8
		c1.9,1,4.2,1.6,6.5,1.6c8.2,0.2,15-6.5,15.4-14.6C115,11.5,107.8,4.4,98.9,4.8z M107.9,28.2c-2.3,2.3-5.2,3.4-8.4,3.4
		c-1.8,0-3.6-0.5-5.2-1.3l-1.1-0.5l-4.7,1.1l1-4.7l-0.5-1c-0.8-1.6-1.3-3.4-1.3-5.3c0-3.1,1.3-6.1,3.4-8.4c2.3-2.3,5.2-3.4,8.4-3.4
		c3.1,0,6.1,1.3,8.4,3.4c2.3,2.3,3.4,5.2,3.4,8.4C111.5,23,110.2,25.9,107.9,28.2z"/>
	<path class="st9" d="M106.9,23.2l-2.9-0.8c-0.3-0.2-0.8,0-1.1,0.3l-0.6,0.6c-0.3,0.3-0.8,0.5-1.1,0.3c-1.5-0.5-4.4-3.1-5-4.4
		c-0.2-0.3-0.2-0.8,0.2-1.1l0.6-0.8c0.3-0.3,0.3-0.8,0.2-1.1l-1.3-2.7c-0.3-0.6-1.1-0.8-1.8-0.3c-0.8,0.6-1.8,1.8-1.9,2.9
		c-0.2,2.1,0.6,4.7,4,7.8c3.9,3.6,7,4,8.9,3.6c1.1-0.3,2.1-1.5,2.6-2.3C107.9,24.2,107.6,23.3,106.9,23.2z"/>
</g>
<path class="st9" d="M54.6,8.6c-0.8-1.1-2.4-1.5-3.6-0.5c-1.1,1-1.5,2.4-0.5,3.6l12.9,17.5c0.8,1.1,2.4,1.3,3.6,0.5s1.5-2.4,0.6-3.6
	C67.5,25.9,54.6,8.6,54.6,8.6z"/>
<path class="st9" d="M45.8,15.1c-0.8-1.1-2.4-1.5-3.6-0.5c-1.1,0.8-1.5,2.4-0.5,3.6l12.9,17.5c0.8,1.1,2.4,1.3,3.6,0.5
	s1.5-2.4,0.6-3.6L45.8,15.1z"/>
<path class="st9" d="M68,22.1c1.1-0.8,1.5-2.4,0.5-3.6c-1-1.1-2.4-1.5-3.6-0.5L47.4,30.9c-1.1,0.8-1.3,2.4-0.5,3.6
	c0.8,1.1,2.4,1.5,3.6,0.6C50.7,35,68,22.1,68,22.1z"/>
<path class="st9" d="M52.8,33.4c1.1-0.8,2.6-1.9,4.2-3.1c-0.8-1.1-1.9-2.6-3.1-4.2l-4.2,3.1L52.8,33.4z"/>
<path class="st9" d="M61.7,26.7c1.6-1.1,3.1-2.3,4.2-3.1c-0.8-1.1-1.9-2.6-3.1-4.2l-4.2,3.1L61.7,26.7z"/>
<path class="st9" d="M61.5,13.3c1.1-0.8,1.5-2.4,0.5-3.6c-1-1.1-2.4-1.5-3.6-0.5L41,22.2c-1.1,0.8-1.3,2.4-0.5,3.6
	c0.8,1.1,2.4,1.5,3.6,0.6C44.1,26.3,61.5,13.3,61.5,13.3z"/>
<path class="st9" d="M46.3,24.6c1.1-0.8,2.6-1.9,4.2-3.1c-1.1-1.6-2.3-3.1-3.1-4.2l-4.2,3.1L46.3,24.6z"/>
<path class="st9" d="M55,18c1.6-1.1,3.1-2.3,4.2-3.1c-1.1-1.6-2.3-3.1-3.1-4.2L52,13.8L55,18z"/>
<circle class="st5" cx="64.6" cy="86.2" r="1.9"/>
<circle class="st5" cx="81.6" cy="86.2" r="1.9"/>
<circle class="st5" cx="31" cy="100.3" r="1.9"/>
<circle class="st5" cx="42.8" cy="100.3" r="1.9"/>
<circle class="st5" cx="107.3" cy="100.3" r="1.9"/>
<circle class="st5" cx="119.1" cy="100.3" r="1.9"/>
</svg>
