<svg width="11" height="14" viewBox="0 0 11 14" fill="none" xmlns="http://www.w3.org/2000/svg">
<path d="M10.5185 6.34209L10.5185 6.34208C10.2161 5.66033 9.77635 5.04842 9.22693 4.54464L9.22692 4.54463L8.77239 4.12698C8.77237 4.12696 8.77234 4.12694 8.77232 4.12692C8.7588 4.11486 8.74255 4.1063 8.72497 4.102C8.70736 4.09768 8.68896 4.09776 8.67138 4.10223C8.65381 4.10669 8.6376 4.11541 8.62418 4.12762C8.61078 4.1398 8.60056 4.15509 8.59442 4.17214C8.59441 4.17217 8.5944 4.17221 8.59439 4.17225L8.39132 4.75573L10.5185 6.34209ZM10.5185 6.34209C10.8286 7.03954 10.9844 7.77907 10.9844 8.54051V8.54054C10.9859 9.26986 10.839 9.99184 10.5528 10.6625L10.5528 10.6625C10.277 11.31 9.88131 11.8935 9.3765 12.3928L9.37646 12.3929C8.87641 12.8911 8.28424 13.2869 7.63304 13.5584L7.63303 13.5584C6.95683 13.8408 6.24013 13.9844 5.49999 13.9844C4.75986 13.9844 4.04317 13.8408 3.36698 13.5568L3.36696 13.5568C2.71416 13.2838 2.12834 12.8906 1.62349 12.3913C1.12345 11.896 0.723988 11.3084 0.447179 10.6609C0.160517 9.98843 0.015625 9.27542 0.015625 8.53895C0.0160771 7.70369 0.209082 6.8798 0.579602 6.13149C0.951068 5.3896 1.48532 4.74149 2.14234 4.23568L2.14238 4.23566C2.41688 4.02307 2.66668 3.78028 2.88707 3.51186L2.88708 3.51185C3.20378 3.1256 3.45153 2.69535 3.62401 2.23211M10.5185 6.34209L4.57642 0.410885L3.93113 0.0306558L3.93108 0.030631C3.85763 -0.0129582 3.76306 0.0442706 3.76717 0.13068L3.76717 0.130708L3.80154 0.881799L3.78593 0.882513L3.80154 0.8818C3.82505 1.39658 3.76555 1.85256 3.62401 2.23211M7.69913 5.86892L7.69893 5.86914C7.67363 5.89628 7.64451 5.90356 7.62485 5.90535C7.60458 5.90719 7.57329 5.90349 7.54581 5.87795C7.52015 5.85578 7.50758 5.82289 7.50939 5.79034L7.5094 5.79025C7.56698 4.85203 7.28691 3.79246 6.67214 2.63771L6.67213 2.63768C6.16403 1.67933 5.4582 0.93199 4.57644 0.410895L7.69913 5.86892ZM7.69913 5.86892C8.02982 5.50007 8.26391 5.12434 8.39131 4.75577L7.69913 5.86892ZM3.62401 2.23211L3.60937 2.22665L3.62401 2.2321C3.62401 2.23211 3.62401 2.23211 3.62401 2.23211Z" fill="url(#paint0_linear)"/>
<path d="M10.5185 6.34209L10.5185 6.34208C10.2161 5.66033 9.77635 5.04842 9.22693 4.54464L9.22692 4.54463L8.77239 4.12698C8.77237 4.12696 8.77234 4.12694 8.77232 4.12692C8.7588 4.11486 8.74255 4.1063 8.72497 4.102C8.70736 4.09768 8.68896 4.09776 8.67138 4.10223C8.65381 4.10669 8.6376 4.11541 8.62418 4.12762C8.61078 4.1398 8.60056 4.15509 8.59442 4.17214C8.59441 4.17217 8.5944 4.17221 8.59439 4.17225L8.39132 4.75573L10.5185 6.34209ZM10.5185 6.34209C10.8286 7.03954 10.9844 7.77907 10.9844 8.54051V8.54054C10.9859 9.26986 10.839 9.99184 10.5528 10.6625L10.5528 10.6625C10.277 11.31 9.88131 11.8935 9.3765 12.3928L9.37646 12.3929C8.87641 12.8911 8.28424 13.2869 7.63304 13.5584L7.63303 13.5584C6.95683 13.8408 6.24013 13.9844 5.49999 13.9844C4.75986 13.9844 4.04317 13.8408 3.36698 13.5568L3.36696 13.5568C2.71416 13.2838 2.12834 12.8906 1.62349 12.3913C1.12345 11.896 0.723988 11.3084 0.447179 10.6609C0.160517 9.98843 0.015625 9.27542 0.015625 8.53895C0.0160771 7.70369 0.209082 6.8798 0.579602 6.13149C0.951068 5.3896 1.48532 4.74149 2.14234 4.23568L2.14238 4.23566C2.41688 4.02307 2.66668 3.78028 2.88707 3.51186L2.88708 3.51185C3.20378 3.1256 3.45153 2.69535 3.62401 2.23211M10.5185 6.34209L4.57642 0.410885L3.93113 0.0306558L3.93108 0.030631C3.85763 -0.0129582 3.76306 0.0442706 3.76717 0.13068L3.76717 0.130708L3.80154 0.881799L3.78593 0.882513L3.80154 0.8818C3.82505 1.39658 3.76555 1.85256 3.62401 2.23211M7.69913 5.86892L7.69893 5.86914C7.67363 5.89628 7.64451 5.90356 7.62485 5.90535C7.60458 5.90719 7.57329 5.90349 7.54581 5.87795C7.52015 5.85578 7.50758 5.82289 7.50939 5.79034L7.5094 5.79025C7.56698 4.85203 7.28691 3.79246 6.67214 2.63771L6.67213 2.63768C6.16403 1.67933 5.4582 0.93199 4.57644 0.410895L7.69913 5.86892ZM7.69913 5.86892C8.02982 5.50007 8.26391 5.12434 8.39131 4.75577L7.69913 5.86892ZM3.62401 2.23211L3.60937 2.22665L3.62401 2.2321C3.62401 2.23211 3.62401 2.23211 3.62401 2.23211Z" stroke="black" stroke-width="0.03125"/>
<path d="M10.5185 6.34209L10.5185 6.34208C10.2161 5.66033 9.77635 5.04842 9.22693 4.54464L9.22692 4.54463L8.77239 4.12698C8.77237 4.12696 8.77234 4.12694 8.77232 4.12692C8.7588 4.11486 8.74255 4.1063 8.72497 4.102C8.70736 4.09768 8.68896 4.09776 8.67138 4.10223C8.65381 4.10669 8.6376 4.11541 8.62418 4.12762C8.61078 4.1398 8.60056 4.15509 8.59442 4.17214C8.59441 4.17217 8.5944 4.17221 8.59439 4.17225L8.39132 4.75573L10.5185 6.34209ZM10.5185 6.34209C10.8286 7.03954 10.9844 7.77907 10.9844 8.54051V8.54054C10.9859 9.26986 10.839 9.99184 10.5528 10.6625L10.5528 10.6625C10.277 11.31 9.88131 11.8935 9.3765 12.3928L9.37646 12.3929C8.87641 12.8911 8.28424 13.2869 7.63304 13.5584L7.63303 13.5584C6.95683 13.8408 6.24013 13.9844 5.49999 13.9844C4.75986 13.9844 4.04317 13.8408 3.36698 13.5568L3.36696 13.5568C2.71416 13.2838 2.12834 12.8906 1.62349 12.3913C1.12345 11.896 0.723988 11.3084 0.447179 10.6609C0.160517 9.98843 0.015625 9.27542 0.015625 8.53895C0.0160771 7.70369 0.209082 6.8798 0.579602 6.13149C0.951068 5.3896 1.48532 4.74149 2.14234 4.23568L2.14238 4.23566C2.41688 4.02307 2.66668 3.78028 2.88707 3.51186L2.88708 3.51185C3.20378 3.1256 3.45153 2.69535 3.62401 2.23211M10.5185 6.34209L4.57642 0.410885L3.93113 0.0306558L3.93108 0.030631C3.85763 -0.0129582 3.76306 0.0442706 3.76717 0.13068L3.76717 0.130708L3.80154 0.881799L3.78593 0.882513L3.80154 0.8818C3.82505 1.39658 3.76555 1.85256 3.62401 2.23211M7.69913 5.86892L7.69893 5.86914C7.67363 5.89628 7.64451 5.90356 7.62485 5.90535C7.60458 5.90719 7.57329 5.90349 7.54581 5.87795C7.52015 5.85578 7.50758 5.82289 7.50939 5.79034L7.5094 5.79025C7.56698 4.85203 7.28691 3.79246 6.67214 2.63771L6.67213 2.63768C6.16403 1.67933 5.4582 0.93199 4.57644 0.410895L7.69913 5.86892ZM7.69913 5.86892C8.02982 5.50007 8.26391 5.12434 8.39131 4.75577L7.69913 5.86892ZM3.62401 2.23211L3.60937 2.22665L3.62401 2.2321C3.62401 2.23211 3.62401 2.23211 3.62401 2.23211Z" stroke="url(#paint1_linear)" stroke-width="0.03125"/>
<path d="M10.5185 6.34209L10.5185 6.34208C10.2161 5.66033 9.77635 5.04842 9.22693 4.54464L9.22692 4.54463L8.77239 4.12698C8.77237 4.12696 8.77234 4.12694 8.77232 4.12692C8.7588 4.11486 8.74255 4.1063 8.72497 4.102C8.70736 4.09768 8.68896 4.09776 8.67138 4.10223C8.65381 4.10669 8.6376 4.11541 8.62418 4.12762C8.61078 4.1398 8.60056 4.15509 8.59442 4.17214C8.59441 4.17217 8.5944 4.17221 8.59439 4.17225L8.39132 4.75573L10.5185 6.34209ZM10.5185 6.34209C10.8286 7.03954 10.9844 7.77907 10.9844 8.54051V8.54054C10.9859 9.26986 10.839 9.99184 10.5528 10.6625L10.5528 10.6625C10.277 11.31 9.88131 11.8935 9.3765 12.3928L9.37646 12.3929C8.87641 12.8911 8.28424 13.2869 7.63304 13.5584L7.63303 13.5584C6.95683 13.8408 6.24013 13.9844 5.49999 13.9844C4.75986 13.9844 4.04317 13.8408 3.36698 13.5568L3.36696 13.5568C2.71416 13.2838 2.12834 12.8906 1.62349 12.3913C1.12345 11.896 0.723988 11.3084 0.447179 10.6609C0.160517 9.98843 0.015625 9.27542 0.015625 8.53895C0.0160771 7.70369 0.209082 6.8798 0.579602 6.13149C0.951068 5.3896 1.48532 4.74149 2.14234 4.23568L2.14238 4.23566C2.41688 4.02307 2.66668 3.78028 2.88707 3.51186L2.88708 3.51185C3.20378 3.1256 3.45153 2.69535 3.62401 2.23211M10.5185 6.34209L4.57642 0.410885L3.93113 0.0306558L3.93108 0.030631C3.85763 -0.0129582 3.76306 0.0442706 3.76717 0.13068L3.76717 0.130708L3.80154 0.881799L3.78593 0.882513L3.80154 0.8818C3.82505 1.39658 3.76555 1.85256 3.62401 2.23211M7.69913 5.86892L7.69893 5.86914C7.67363 5.89628 7.64451 5.90356 7.62485 5.90535C7.60458 5.90719 7.57329 5.90349 7.54581 5.87795C7.52015 5.85578 7.50758 5.82289 7.50939 5.79034L7.5094 5.79025C7.56698 4.85203 7.28691 3.79246 6.67214 2.63771L6.67213 2.63768C6.16403 1.67933 5.4582 0.93199 4.57644 0.410895L7.69913 5.86892ZM7.69913 5.86892C8.02982 5.50007 8.26391 5.12434 8.39131 4.75577L7.69913 5.86892ZM3.62401 2.23211L3.60937 2.22665L3.62401 2.2321C3.62401 2.23211 3.62401 2.23211 3.62401 2.23211Z" stroke="url(#paint2_linear)" stroke-width="0.03125"/>
<defs>
<linearGradient id="paint0_linear" x1="0" y1="14" x2="11" y2="14" gradientUnits="userSpaceOnUse">
<stop stop-color="#FA8733"/>
<stop offset="1" stop-color="#F7C332"/>
</linearGradient>
<linearGradient id="paint1_linear" x1="5.5" y1="0" x2="5.5" y2="14" gradientUnits="userSpaceOnUse">
<stop stop-color="white"/>
<stop offset="1" stop-color="white" stop-opacity="0"/>
</linearGradient>
<linearGradient id="paint2_linear" x1="5.5" y1="0" x2="5.5" y2="14" gradientUnits="userSpaceOnUse">
<stop stop-color="white"/>
<stop offset="1" stop-color="white" stop-opacity="0"/>
</linearGradient>
</defs>
</svg>
