<svg width="36" height="29" viewBox="0 0 36 29" fill="none" xmlns="http://www.w3.org/2000/svg">
<path d="M19.7887 21.1412C19.1625 21.5339 18.3604 21.7503 17.5304 21.7503C16.7003 21.7503 15.8983 21.534 15.272 21.1412L5.04758 14.729C5.04758 14.729 4.12473 14.1506 4.12473 15.461C4.12473 16.949 4.12473 21.413 4.12473 21.413C4.12473 21.4725 4.12473 21.7713 4.12473 21.8639C4.12473 25.2369 10.1265 28.8731 17.5301 28.8731C24.9337 28.8731 30.9355 25.237 30.9355 21.8639C30.9355 21.7713 30.9355 21.4725 30.9355 21.413C30.9355 21.413 30.9355 16.6782 30.9355 15.1C30.9355 14.0482 30.2794 14.5621 30.2794 14.5621L19.7887 21.1412Z" fill="url(#paint0_linear)"/>
<path d="M34.4731 9.79044C35.2559 9.31408 35.2559 8.53454 34.4731 8.05809L18.9534 0.357269C18.1706 -0.11909 16.8896 -0.11909 16.1068 0.357269L0.587105 8.05809C-0.195702 8.53445 -0.195702 9.31399 0.587105 9.79044L16.1068 19.2352C16.8896 19.7116 18.1706 19.7116 18.9534 19.2352" fill="url(#paint1_linear)"/>
<path d="M33.846 24.2421C33.846 21.6243 33.846 13.7708 33.846 13.7708C33.846 13.7708 33.8543 13.2748 33.5188 13.4386C33.2497 13.57 32.5899 13.8925 32.3575 14.0699C32.0892 14.2745 32.1497 14.7337 32.1497 14.7337C32.1497 14.7337 32.1497 21.865 32.1497 24.2421C32.1497 24.377 32.0174 24.4415 31.9544 24.474C31.3451 24.7882 30.9355 25.3681 30.9355 26.0329C30.9355 27.032 31.8588 27.842 32.9979 27.842C34.1369 27.842 35.0602 27.032 35.0602 26.0329C35.0602 25.3656 34.6476 24.7838 34.0344 24.4704C33.9735 24.4393 33.846 24.3769 33.846 24.2421Z" fill="url(#paint2_linear)"/>
<defs>
<linearGradient id="paint0_linear" x1="7.94414" y1="28.8731" x2="30.1117" y2="28.8731" gradientUnits="userSpaceOnUse">
<stop stop-color="#E74E4B"/>
<stop offset="1" stop-color="#FB8133"/>
</linearGradient>
<linearGradient id="paint1_linear" x1="4.99461" y1="19.5925" x2="33.983" y2="19.5925" gradientUnits="userSpaceOnUse">
<stop stop-color="#E74E4B"/>
<stop offset="1" stop-color="#FB8133"/>
</linearGradient>
<linearGradient id="paint2_linear" x1="31.5231" y1="27.842" x2="34.9335" y2="27.842" gradientUnits="userSpaceOnUse">
<stop stop-color="#E74E4B"/>
<stop offset="1" stop-color="#FB8133"/>
</linearGradient>
</defs>
</svg>
