<svg id="Layer_1" data-name="Layer 1" xmlns="http://www.w3.org/2000/svg" xmlns:xlink="http://www.w3.org/1999/xlink" viewBox="0 0 278.79 555"><defs><style>.cls-1{fill:url(#linear-gradient);}.cls-2{fill:#ccc;}.cls-3{fill:none;}.cls-4{fill:url(#linear-gradient-2);}.cls-5{fill:#333;}</style><linearGradient id="linear-gradient" x1="-48.91" y1="83.33" x2="341.42" y2="473.67" gradientUnits="userSpaceOnUse"><stop offset="0" stop-color="#ccc"/><stop offset="1" stop-color="gray"/></linearGradient><linearGradient id="linear-gradient-2" x1="-45.2" y1="87.05" x2="336.93" y2="469.18" gradientUnits="userSpaceOnUse"><stop offset="0" stop-color="#666"/><stop offset="1"/></linearGradient></defs><title>iphone</title><path class="cls-1" d="M282.69,41.28A40.29,40.29,0,0,0,242.4,1H50.11A40.29,40.29,0,0,0,9.82,41.28V515.72A40.29,40.29,0,0,0,50.11,556H242.4a40.29,40.29,0,0,0,40.29-40.28ZM276.5,515.33A34.49,34.49,0,0,1,242,549.82H49.72a34.49,34.49,0,0,1-34.49-34.49V40.9A34.49,34.49,0,0,1,49.72,6.41H242A34.49,34.49,0,0,1,276.5,40.9Z" transform="translate(-6.86 -1)"/><polyline class="cls-2" points="2.96 73.26 0 73.26 0 94.26 2.96 94.26"/><polyline class="cls-2" points="275.82 190.85 278.79 190.85 278.79 126.24 275.82 126.24"/><polyline class="cls-2" points="2.96 113.68 0 113.68 0 152.97 2.96 152.97"/><polyline class="cls-2" points="2.96 164.12 0 164.12 0 203.41 2.96 203.41"/><path class="cls-3" d="M243.19,15.69h-22c-4.71,0-6.45,0-6.73,6-.3,6.2-4.55,9.57-10.31,11.37-2,.61-4.12.42-6.2.42H96.2c-2.07,0-4.24.34-6.2-.27-5.75-1.8-10-5.47-10.3-11.67-.29-6-2-5.84-6.73-5.84H50.72c-13.5,0-23.89,11.15-23.89,24.65v474a23.47,23.47,0,0,0,23.89,23.84H243.19c13.5,0,24.81-10.34,24.81-23.84v-474A24.94,24.94,0,0,0,243.19,15.69Z" transform="translate(-6.86 -1)"/><path class="cls-4" d="M276.5,40.9A34.49,34.49,0,0,0,242,6.41H49.72A34.49,34.49,0,0,0,15.23,40.9V515.33a34.49,34.49,0,0,0,34.49,34.49H242a34.49,34.49,0,0,0,34.49-34.49ZM178.12,20a3.39,3.39,0,1,1-3.38-3.38A3.38,3.38,0,0,1,178.12,20Zm-46-1.95h30.15a2.1,2.1,0,0,1,2.32,1.93,2.1,2.1,0,0,1-2.32,1.93H132.12a2.09,2.09,0,0,1-2.31-1.93A2.09,2.09,0,0,1,132.12,18ZM268,514.38c0,13.5-11.31,23.84-24.81,23.84H50.72a23.47,23.47,0,0,1-23.89-23.84v-474c0-13.5,10.39-24.65,23.89-24.65H73c4.7,0,6.44,0,6.73,6,.29,6.2,4.55,9.57,10.3,11.37,2,.61,4.13.42,6.2.42H197.91c2.08,0,4.25.34,6.2-.27,5.76-1.8,10-5.47,10.31-11.67.28-6,2-5.84,6.73-5.84h22A24.94,24.94,0,0,1,268,40.34Z" transform="translate(-6.86 -1)"/><circle class="cls-5" cx="167.88" cy="18.96" r="3.38"/><path class="cls-5" d="M132.12,21.87h30.15a2.1,2.1,0,0,0,2.32-1.93A2.1,2.1,0,0,0,162.27,18H132.12a2.09,2.09,0,0,0-2.31,1.93A2.09,2.09,0,0,0,132.12,21.87Z" transform="translate(-6.86 -1)"/></svg>