<?xml version="1.0" encoding="utf-8"?>
<!-- Generator: Adobe Illustrator 22.1.0, SVG Export Plug-In . SVG Version: 6.00 Build 0)  -->
<svg version="1.1" id="Layer_1" xmlns="http://www.w3.org/2000/svg" xmlns:xlink="http://www.w3.org/1999/xlink" x="0px" y="0px"
	 viewBox="0 0 150 150" style="enable-background:new 0 0 150 150;" xml:space="preserve">
<style type="text/css">
	.st0{fill:#D29B6E;}
	.st1{fill:#3A4061;}
	.st2{fill:#474F72;}
	.st3{fill:#F0C087;}
	.st4{fill:#E6AF78;}
	.st5{fill:#2D2D2D;}
	.st6{fill:#333333;}
	.st7{fill:#D5DCED;}
	.st8{fill:#AFB9D2;}
	.st9{fill:#FFFFFF;}
	.st10{fill:#9CCE82;}
</style>
<path class="st0" d="M37.2,65.6v11.2c0,1.6-1,3.3-2.9,3.7l-17.2,5.3c-3.3,1-5.5,4.1-5.5,7.6V122c0,5.5,4.3,9.8,9.8,9.8h4.9h51.5
	V65.6H37.2z"/>
<path class="st1" d="M50.9,95.1c-9.4,0-17.8-4.9-22.7-12.5l-11,3.3c-3.3,1-5.5,4.1-5.5,7.6v28.6c0,5.5,4.3,9.8,9.8,9.8h4.9h51.5
	V68.1C77.9,82.8,65.6,95.1,50.9,95.1z"/>
<g>
	<path class="st2" d="M77.9,68.1c0,14.9-12.1,27-27,27c-9.4,0-17.8-4.9-22.7-12.5L23.3,84c5.5,9.4,15.7,16,27.6,16
		c11.5,0,21.3-5.9,27-14.9V68.1L77.9,68.1z"/>
	<path class="st2" d="M53.3,119.6H28.8c-1.4,0-2.5-1-2.5-2.5v-14.7L13,89.1c-0.8,1.2-1.4,2.9-1.4,4.5v28.6c0,5.5,4.3,9.8,9.8,9.8
		h4.9h34.4v-4.9C60.7,122.9,57.4,119.6,53.3,119.6z"/>
</g>
<path class="st3" d="M73,48.5h-1.6l-0.8-17.2H31.2l-0.8,17.2h-1.6c-2,0-3.7,1.6-3.7,3.7V57c0,2,1.6,3.7,3.7,3.7h3.5l0.4,2.5
	c0.2,1.8,1.2,3.5,2.7,4.7l8,6.5c1,0.8,2.5,1.4,3.7,1.4h7.6c1.4,0,2.7-0.4,3.7-1.4l8-6.5c1.4-1.2,2.5-2.9,2.7-4.7l0.4-2.5H73
	c2,0,3.7-1.6,3.7-3.7v-4.9C76.6,50.1,75,48.5,73,48.5z"/>
<path class="st4" d="M75.6,49.5c-0.4-0.4-0.8-0.6-1.2-0.8c-0.4-0.2-1-0.2-1.4-0.2h-1.6l0,0l-0.8-17.2H31.2l-0.8,17.2h-1.6
	c-2,0-3.7,1.6-3.7,3.7V57c0,2,1.6,3.7,3.7,3.7h3.5l0.4,2.5c0.2,1.8,1.2,3.5,2.7,4.7l8,6.5c1,0.8,2.5,1.4,3.7,1.4h3.1l-3.3-10
	C46.2,64,46,62.2,46,60.3V47c0-1.2,1-2.2,2.2-2.5c1.2-0.2,2.5-0.4,3.5-0.8c3.1,1.4,6.7,1.4,9.8,0l0.6,4.1c0.6,3.9,4.1,6.7,8,6.7h4.3
	c0.6,0,1.4-0.2,2-0.4v-2C76.6,51.1,76.2,50.1,75.6,49.5z"/>
<path class="st5" d="M80.3,30.7c0-2.7-1.8-4.9-4.3-5.7c0.2-0.6,0.4-1.4,0.4-2.2c0-3.3-2.7-5.9-5.9-5.9c-0.2,0-0.2,0-0.4,0
	C69.3,14.7,67,13,64.6,13c-0.6,0-1.2,0.2-1.8,0.4c-1.2-1.4-3.1-2.2-5.1-2.2c-0.6,0-1,0-1.4,0.2c-1.4-1.2-3.3-2-5.3-2s-3.9,0.8-5.3,2
	c-0.4-0.2-1-0.2-1.4-0.2c-1.8,0-3.5,0.8-4.9,2l0,0c-2.7,0-4.7,1.6-5.5,3.9c-0.2,0-0.2,0-0.4,0c-3.3,0-5.9,2.7-5.9,5.9
	c0,0.8,0.2,1.4,0.4,2.2c-2.5,0.6-4.3,2.9-4.3,5.7c0,1.4,0.6,2.9,1.4,3.9c-1,1-1.4,2.5-1.4,3.9c0,2.2,1.2,4.1,2.9,5.1
	c0,2.7,2.2,4.7,4.9,4.7h2c1,0,1.8-0.6,1.8-1.6l1.4-8.2c0.2,0,0.2,0,0.4,0c2,0,3.9-1,4.9-2.7c1,1.6,2.9,2.7,4.9,2.7s3.9-1,4.9-2.7
	c1,1.6,2.9,2.7,4.9,2.7s3.9-1,4.9-2.7c1,1.6,2.9,2.7,4.9,2.7c0.2,0,0.2,0,0.4,0l1.4,8.2c0.2,1,1,1.6,1.8,1.6h2.7
	c2.7,0,4.9-2.2,4.9-4.9c0,0,0,0,0-0.2c1.4-1,2.5-2.9,2.5-4.7c0-1.4-0.6-2.9-1.4-3.9C79.7,33.5,80.3,32.3,80.3,30.7z"/>
<path class="st6" d="M49.4,34.4c-2.2-0.8-3.9-3.1-3.9-5.5c0-1.4,0.6-2.9,1.4-3.9c-1-1-1.4-2.5-1.4-3.9c0-2.7,1.8-4.9,4.3-5.7
	c-0.2-0.6-0.4-1.4-0.4-2.2c0-1.4,0.6-2.9,1.4-3.9l0,0c-2,0-3.9,0.8-5.3,2c-0.4-0.2-1-0.2-1.4-0.2c-1.8,0-3.5,0.8-4.9,2l0,0
	c-2.7,0-4.7,1.6-5.5,3.9c-0.2,0-0.2,0-0.4,0c-3.3,0-5.9,2.7-5.9,5.9c0,0.8,0.2,1.4,0.4,2.2c-2.5,0.6-4.3,2.9-4.3,5.7
	c0,1.4,0.6,2.9,1.4,3.9c-1,1-1.4,2.5-1.4,3.9c0,2.2,1.2,4.1,2.9,5.1c0,2.7,2.2,4.7,4.9,4.7h2c1,0,1.8-0.6,1.8-1.6l1.4-8.2
	c0.2,0,0.2,0,0.4,0c2,0,3.9-1,4.9-2.7c1,1.6,2.9,2.7,4.9,2.7c1.4,0,2.7-0.4,3.5-1.2c-0.6-0.6-1-1.6-1-2.7
	C49.4,34.6,49.4,34.4,49.4,34.4z"/>
<path class="st3" d="M46,119.6h7.4c4.1,0,7.4,3.3,7.4,7.4v4.9H46V119.6L46,119.6z"/>
<path class="st2" d="M77.9,68.1c0,14.9-12.1,27-27,27c-9.4,0-17.8-4.9-22.7-12.5l-7.4,2.2c5.9,10.4,17.2,17.6,29.9,17.6
	c11,0,20.7-5.1,27-13.1V68.1H77.9z"/>
<path class="st7" d="M139.2,114.7H65.6c-4.1,0-7.4-3.3-7.4-7.4V63.2c0-4.1,3.3-7.4,7.4-7.4h73.6c4.1,0,7.4,3.3,7.4,7.4v44.2
	C146.6,111.2,143.3,114.7,139.2,114.7z"/>
<path class="st8" d="M117.1,131.9l-4.3-32.5c-0.4-2.5-2.5-4.3-4.9-4.3h-11c-2.5,0-4.5,1.8-4.9,4.3l-4.3,32.5H117.1z"/>
<circle class="st9" cx="102.4" cy="80.4" r="4.9"/>
<path class="st10" d="M144.1,141.7H6.7c-1.4,0-2.5-1-2.5-2.5v-4.9c0-1.4,1-2.5,2.5-2.5h137.4c1.4,0,2.5,1,2.5,2.5v4.9
	C146.6,140.5,145.3,141.7,144.1,141.7z"/>
<circle class="st6" cx="48" cy="50.5" r="2.2"/>
<circle class="st6" cx="60.3" cy="50.5" r="2.2"/>
</svg>
