<?xml version="1.0" encoding="utf-8"?>
<!-- Generator: Adobe Illustrator 22.1.0, SVG Export Plug-In . SVG Version: 6.00 Build 0)  -->
<svg version="1.1" id="Layer_1" xmlns="http://www.w3.org/2000/svg" xmlns:xlink="http://www.w3.org/1999/xlink" x="0px" y="0px"
	 viewBox="0 0 1366 1000" style="enable-background:new 0 0 1366 1000;" xml:space="preserve">
<style type="text/css">
	.st0{fill:#FCFCFC;}
	.st1{fill:none;stroke:#EFEFEF;stroke-width:3;stroke-linecap:round;stroke-linejoin:round;stroke-miterlimit:10;}
	.st2{fill:#F7F7F7;}
	.st3{fill:none;stroke:#E8E8E8;stroke-width:2;stroke-linecap:round;stroke-linejoin:round;stroke-miterlimit:10;}
	.st4{fill:#EFEFEF;}
	.st5{fill:#FFFFFF;}
	.st6{fill:none;stroke:#E8E8E8;stroke-width:1.5;stroke-linecap:round;stroke-linejoin:round;stroke-miterlimit:10;}
	.st7{fill:none;stroke:#E8E8E8;stroke-width:3;stroke-linecap:round;stroke-linejoin:round;stroke-miterlimit:10;}
</style>
<g id="window_1_">
	<g id="color_1_">
		<g id="XMLID_4_">
			<g>
				<polygon class="st0" points="400.7,857.6 400.7,871 127,871 127,857.6 132.3,857.6 261.1,857.6 266.5,857.6 395.4,857.6 				"/>
				<path class="st0" d="M395.4,589.2v268.4H266.5V589.2H395.4z M384.5,846.9V727.4V599.9H277.2v127.5v119.4H384.5z"/>
				<polygon class="st0" points="384.5,727.4 384.5,846.9 277.3,846.9 277.3,727.4 285.3,727.4 285.3,838.8 326.9,838.8 
					326.9,727.4 334.9,727.4 334.9,838.8 376.6,838.8 376.6,727.4 				"/>
				<path class="st0" d="M384.5,599.9v127.5h-8.1h-41.6h-8.1h-41.6h-8.1V599.9H384.5z M376.6,719.3V608H335v111.4H376.6z
					 M326.9,719.3V608h-41.6v111.4H326.9z"/>
				<polygon class="st0" points="266.5,589.2 266.5,857.6 261.1,857.6 261.1,589.2 				"/>
				<path class="st0" d="M261.1,589.2v268.4H132.3V589.2H261.1z M250.4,846.9V727.4V599.9H143v127.5v119.4H250.4z"/>
				<polygon class="st0" points="250.4,727.4 250.4,846.9 143,846.9 143,727.4 151.1,727.4 151.1,838.8 192.7,838.8 192.7,727.4 
					200.8,727.4 200.8,838.8 242.3,838.8 242.3,727.4 				"/>
				<path class="st0" d="M250.4,599.9v127.5h-8.1h-41.6h-8.1h-41.6H143V599.9H250.4z M242.3,719.3V608h-41.6v111.4H242.3z
					 M192.7,719.3V608h-41.6v111.4H192.7z"/>
			</g>
		</g>
	</g>
	<g id="lines_2_">
		<rect x="127.2" y="857.6" class="st1" width="273.3" height="13.4"/>
		<polyline class="st1" points="395.4,589.6 395.4,857.6 132.6,857.6 132.6,589.6 395.4,589.6 		"/>
		<line class="st1" x1="267.8" y1="589.6" x2="267.8" y2="857.6"/>
		<line class="st1" x1="260" y1="857.6" x2="260" y2="589.6"/>
		<rect x="143.3" y="600.3" class="st1" width="107.2" height="246.5"/>
		<line class="st1" x1="242.5" y1="719.6" x2="201" y2="719.6"/>
		<line class="st1" x1="192.9" y1="719.6" x2="151.4" y2="719.6"/>
		<line class="st1" x1="143.3" y1="727.5" x2="250.5" y2="727.5"/>
		<line class="st1" x1="192.9" y1="838.8" x2="192.9" y2="727.5"/>
		<line class="st1" x1="192.9" y1="719.6" x2="192.9" y2="608.4"/>
		<line class="st1" x1="201" y1="838.8" x2="201" y2="727.5"/>
		<line class="st1" x1="201" y1="719.6" x2="201" y2="608.4"/>
		<polyline class="st1" points="201,608.4 242.5,608.4 242.5,719.6 		"/>
		<polyline class="st1" points="151.4,719.6 151.4,608.4 192.9,608.4 		"/>
		<polyline class="st1" points="151.4,727.5 151.4,838.8 192.9,838.8 		"/>
		<polyline class="st1" points="242.5,727.5 242.5,838.8 201,838.8 		"/>
		<rect x="277.4" y="600.3" class="st1" width="107.2" height="246.5"/>
		<line class="st1" x1="376.6" y1="719.6" x2="334.9" y2="719.6"/>
		<line class="st1" x1="326.9" y1="719.6" x2="285.4" y2="719.6"/>
		<line class="st1" x1="277.4" y1="727.5" x2="384.5" y2="727.5"/>
		<line class="st1" x1="326.9" y1="838.8" x2="326.9" y2="727.5"/>
		<line class="st1" x1="326.9" y1="719.6" x2="326.9" y2="608.4"/>
		<line class="st1" x1="334.9" y1="838.8" x2="334.9" y2="727.5"/>
		<line class="st1" x1="334.9" y1="719.6" x2="334.9" y2="608.4"/>
		<polyline class="st1" points="334.9,608.4 376.6,608.4 376.6,719.6 		"/>
		<polyline class="st1" points="285.4,719.6 285.4,608.4 326.9,608.4 		"/>
		<polyline class="st1" points="285.4,727.5 285.4,838.8 326.9,838.8 		"/>
		<polyline class="st1" points="376.6,727.5 376.6,838.8 334.9,838.8 		"/>
	</g>
</g>
<g id="window_2_">
	<g id="color_2_">
		<g id="XMLID_1_">
			<g>
				<polygon class="st0" points="1238.7,597.6 1238.7,611 965,611 965,597.6 970.3,597.6 1099.1,597.6 1104.5,597.6 1233.4,597.6 
									"/>
				<path class="st0" d="M1233.4,329.2v268.4h-128.9V329.2H1233.4z M1222.5,586.9V467.4V339.9h-107.4v127.5v119.4H1222.5z"/>
				<polygon class="st0" points="1222.5,467.4 1222.5,586.9 1115.3,586.9 1115.3,467.4 1123.3,467.4 1123.3,578.8 1164.9,578.8 
					1164.9,467.4 1172.9,467.4 1172.9,578.8 1214.6,578.8 1214.6,467.4 				"/>
				<path class="st0" d="M1222.5,339.9v127.5h-8.1h-41.6h-8.1h-41.6h-8.1V339.9H1222.5z M1214.6,459.3V348H1173v111.4H1214.6z
					 M1164.9,459.3V348h-41.6v111.4H1164.9z"/>
				<polygon class="st0" points="1104.5,329.2 1104.5,597.6 1099.1,597.6 1099.1,329.2 				"/>
				<path class="st0" d="M1099.1,329.2v268.4H970.3V329.2H1099.1z M1088.4,586.9V467.4V339.9H981v127.5v119.4H1088.4z"/>
				<polygon class="st0" points="1088.4,467.4 1088.4,586.9 981,586.9 981,467.4 989.1,467.4 989.1,578.8 1030.7,578.8 
					1030.7,467.4 1038.8,467.4 1038.8,578.8 1080.3,578.8 1080.3,467.4 				"/>
				<path class="st0" d="M1088.4,339.9v127.5h-8.1h-41.6h-8.1h-41.6H981V339.9H1088.4z M1080.3,459.3V348h-41.6v111.4H1080.3z
					 M1030.7,459.3V348h-41.6v111.4H1030.7z"/>
			</g>
		</g>
	</g>
	<g id="lines_1_">
		<rect x="965.2" y="597.6" class="st1" width="273.3" height="13.4"/>
		<polyline class="st1" points="1233.4,329.6 1233.4,597.6 970.6,597.6 970.6,329.6 1233.4,329.6 		"/>
		<line class="st1" x1="1105.8" y1="329.6" x2="1105.8" y2="597.6"/>
		<line class="st1" x1="1098" y1="597.6" x2="1098" y2="329.6"/>
		<rect x="981.3" y="340.3" class="st1" width="107.2" height="246.5"/>
		<line class="st1" x1="1080.5" y1="459.6" x2="1039" y2="459.6"/>
		<line class="st1" x1="1030.9" y1="459.6" x2="989.4" y2="459.6"/>
		<line class="st1" x1="981.3" y1="467.5" x2="1088.5" y2="467.5"/>
		<line class="st1" x1="1030.9" y1="578.8" x2="1030.9" y2="467.5"/>
		<line class="st1" x1="1030.9" y1="459.6" x2="1030.9" y2="348.4"/>
		<line class="st1" x1="1039" y1="578.8" x2="1039" y2="467.5"/>
		<line class="st1" x1="1039" y1="459.6" x2="1039" y2="348.4"/>
		<polyline class="st1" points="1039,348.4 1080.5,348.4 1080.5,459.6 		"/>
		<polyline class="st1" points="989.4,459.6 989.4,348.4 1030.9,348.4 		"/>
		<polyline class="st1" points="989.4,467.5 989.4,578.8 1030.9,578.8 		"/>
		<polyline class="st1" points="1080.5,467.5 1080.5,578.8 1039,578.8 		"/>
		<rect x="1115.4" y="340.3" class="st1" width="107.2" height="246.5"/>
		<line class="st1" x1="1214.6" y1="459.6" x2="1172.9" y2="459.6"/>
		<line class="st1" x1="1164.9" y1="459.6" x2="1123.4" y2="459.6"/>
		<line class="st1" x1="1115.4" y1="467.5" x2="1222.5" y2="467.5"/>
		<line class="st1" x1="1164.9" y1="578.8" x2="1164.9" y2="467.5"/>
		<line class="st1" x1="1164.9" y1="459.6" x2="1164.9" y2="348.4"/>
		<line class="st1" x1="1172.9" y1="578.8" x2="1172.9" y2="467.5"/>
		<line class="st1" x1="1172.9" y1="459.6" x2="1172.9" y2="348.4"/>
		<polyline class="st1" points="1172.9,348.4 1214.6,348.4 1214.6,459.6 		"/>
		<polyline class="st1" points="1123.4,459.6 1123.4,348.4 1164.9,348.4 		"/>
		<polyline class="st1" points="1123.4,467.5 1123.4,578.8 1164.9,578.8 		"/>
		<polyline class="st1" points="1214.6,467.5 1214.6,578.8 1172.9,578.8 		"/>
	</g>
</g>
<polygon class="st2" points="123.2,390.1 123.2,406.1 91.2,406.1 91.2,390.1 107.2,390.1 "/>
<polygon class="st2" points="107.2,374.1 107.2,390.1 91.2,390.1 75.2,390.1 75.2,374.1 "/>
<polygon class="st2" points="139.2,374.1 139.2,390.1 123.2,390.1 107.2,390.1 107.2,374.1 "/>
<rect x="90.9" y="390.7" class="st3" width="32" height="16"/>
<rect x="106.9" y="374.7" class="st3" width="32" height="16"/>
<line class="st3" x1="122.8" y1="406.7" x2="130.3" y2="406.7"/>
<line class="st3" x1="90.8" y1="406.7" x2="84.6" y2="406.7"/>
<rect x="74.9" y="374.7" class="st3" width="32" height="16"/>
<line class="st3" x1="74.8" y1="390.7" x2="68.5" y2="390.7"/>
<polygon class="st2" points="192.2,239.1 192.2,255.1 160.2,255.1 160.2,239.1 176.2,239.1 "/>
<polygon class="st2" points="176.2,223.1 176.2,239.1 160.2,239.1 144.2,239.1 144.2,223.1 "/>
<polygon class="st2" points="208.2,223.1 208.2,239.1 192.2,239.1 176.2,239.1 176.2,223.1 "/>
<rect x="159.9" y="239.7" class="st3" width="32" height="16"/>
<rect x="175.9" y="223.7" class="st3" width="32" height="16"/>
<line class="st3" x1="191.8" y1="255.7" x2="199.3" y2="255.7"/>
<line class="st3" x1="159.8" y1="255.7" x2="153.6" y2="255.7"/>
<rect x="143.9" y="223.7" class="st3" width="32" height="16"/>
<line class="st3" x1="143.8" y1="239.7" x2="137.5" y2="239.7"/>
<polygon class="st2" points="1259.2,222.1 1259.2,238.1 1227.2,238.1 1227.2,222.1 1243.2,222.1 "/>
<polygon class="st2" points="1243.2,206.1 1243.2,222.1 1227.2,222.1 1211.2,222.1 1211.2,206.1 "/>
<polygon class="st2" points="1275.2,206.1 1275.2,222.1 1259.2,222.1 1243.2,222.1 1243.2,206.1 "/>
<rect x="1226.9" y="222.7" class="st3" width="32" height="16"/>
<rect x="1242.9" y="206.7" class="st3" width="32" height="16"/>
<line class="st3" x1="1258.8" y1="238.7" x2="1266.3" y2="238.7"/>
<line class="st3" x1="1226.8" y1="238.7" x2="1220.6" y2="238.7"/>
<rect x="1210.9" y="206.7" class="st3" width="32" height="16"/>
<line class="st3" x1="1210.8" y1="222.7" x2="1204.5" y2="222.7"/>
<polygon class="st2" points="1299.2,693.1 1299.2,709.1 1267.2,709.1 1267.2,693.1 1283.2,693.1 "/>
<polygon class="st2" points="1283.2,677.1 1283.2,693.1 1267.2,693.1 1251.2,693.1 1251.2,677.1 "/>
<polygon class="st2" points="1315.2,677.1 1315.2,693.1 1299.2,693.1 1283.2,693.1 1283.2,677.1 "/>
<rect x="1266.9" y="693.7" class="st3" width="32" height="16"/>
<rect x="1282.9" y="677.7" class="st3" width="32" height="16"/>
<line class="st3" x1="1298.8" y1="709.7" x2="1306.3" y2="709.7"/>
<line class="st3" x1="1266.8" y1="709.7" x2="1260.6" y2="709.7"/>
<rect x="1250.9" y="677.7" class="st3" width="32" height="16"/>
<line class="st3" x1="1250.8" y1="693.7" x2="1244.5" y2="693.7"/>
<g id="Layer_2_1_">
	<g id="bush">
		<g id="color_4_">
			<g id="XMLID_31_">
				<g>
					<path class="st2" d="M1218.1,823.8L1218.1,823.8c-25.6,5.6-37.3,46.2-48.8,63.5h-5.3c3.5-7.4,5.6-15.8,6.8-25
						c1.8-4.9,4-9.3,6.5-13.1C1188,832.5,1203.9,825.3,1218.1,823.8z"/>
					<polygon class="st2" points="1201.6,887.3 1201.6,898.2 1197.9,898.2 1118.3,898.2 1114.6,898.2 1114.6,887.3 1148.6,887.3 
						1154.3,887.3 1158,887.3 1164,887.3 1169.2,887.3 					"/>
					<path class="st2" d="M1201.4,764.2L1201.4,764.2c-11,16.1-26.3,56.7-24,84.7l0,0c-2.6,3.9-4.7,8.2-6.5,13.1
						c1.2-8.9,1.8-18.7,2.1-29.2h0.2C1175,803.3,1191.3,776.5,1201.4,764.2z"/>
					<polygon class="st2" points="1197.9,898.2 1189.9,945.9 1126.2,945.9 1118.3,898.2 					"/>
					<polygon class="st2" points="1189.9,945.9 1188.8,952.6 1127.2,952.6 1126.2,945.9 					"/>
					<path class="st2" d="M1158,801.5c3.2-38.5,25.4-81.8,35.9-97.3c-20.7,47.4-20,92.4-21,128.8c-0.4,10.5-0.9,20.3-2.1,29.2
						c-1.4,9.3-3.3,17.9-6.8,25h-6C1159.6,873.5,1160.5,839.2,1158,801.5C1158,801.7,1158,801.7,1158,801.5z"/>
					<path class="st2" d="M1158,801.7c2.5,37.6,1.6,72,0,85.6h-3.7c-7.2-16.3-9.6-45.2-11.2-76.5v-0.2
						c-2.6-50.2-2.6-107.1-14.7-131.1C1147,703.7,1155,755.1,1158,801.7L1158,801.7z"/>
					<path class="st2" d="M1154.3,887.3h-5.8c-34-38.9-2.5-93.3-35.2-174.4c15.2,21.5,26.4,59.7,29.8,97.7v0.2
						C1144.7,842.3,1147.3,871,1154.3,887.3z"/>
				</g>
			</g>
		</g>
		<g id="shadow_1_">
			<g>
				<rect x="1119" y="898.2" class="st4" width="78.3" height="5.3"/>
				<path class="st4" d="M1190.1,786.6l1.6-7.2c-8.1,10-17,35.2-18.6,48.5l-0.9,30.1l5.8-10C1173.4,829.2,1190.1,786.6,1190.1,786.6
					z"/>
				<path class="st4" d="M1154,887.5c-1.8-3.7-3.5-11.2-4.9-17.9C1151.4,879.1,1154,887.5,1154,887.5h3.9c1.6-5.4,1.6-39,1.6-39
					c-3.2,22.6-12.4,8.8-13.7,0c-0.2,2.6,0.4,6.1,1.1,10c-3.5,15.8-12.1,1.8-15.2-22.2c-1.8,32,16.8,51.1,16.8,51.1L1154,887.5
					L1154,887.5z"/>
				<path class="st4" d="M1163.3,887.5l5.8-0.2l12.1-22.2c-3,6-9.6,7.4-12.1,6.1l0,0c1.8-8.1,1.8-14.4,1.8-14.4
					c-1.1,10.5-10.2,14.9-11.2,9.1l-0.2,21.7h3.9V887.5z"/>
			</g>
			<g>
				<polygon class="st5" points="1114.6,891.2 1124.8,891.2 1124.8,897.8 1148.9,898.2 1148.9,891.2 1201.6,891.2 1201.6,887.3 
					1114.6,887.3 				"/>
				<polygon class="st5" points="1135.8,952.6 1152.4,952.6 1151.2,898.2 1148.9,898.2 1127.2,898.2 				"/>
				<path class="st5" d="M1130.4,812.4l1.1,31.2c2.1-5.3,1.8-29.9,5.6-31.2c3.3-1.1,6.7,12.4,6.7,12.4l-2.6-31
					c-6.8,25.6-11.6-8.9-13-20.3l1.9,24.2L1130.4,812.4z"/>
				<path class="st5" d="M1154,755.8c-9.5-58.5-25.7-76.7-25.7-76.7c13.3,24.3,15.4,136,15.4,136
					C1150.1,778.8,1144.5,739,1154,755.8z"/>
				<path class="st5" d="M1188.3,715c-6.1,6.5-35.2,67.2-29.6,97.5C1164.3,842.7,1156.4,780,1188.3,715z"/>
				<path class="st5" d="M1171,867.7c2.5-6.8,18.9-36.4,25.9-29.1l15.6-14C1212.5,824.6,1175.5,832.9,1171,867.7z"/>
			</g>
		</g>
		<g id="lines_8_">
			<g>
				<path class="st6" d="M1113.4,712.9c35.2,64.1,11.7,136,38.2,174.4"/>
				<path class="st6" d="M1218.1,823.9c-37.5,11.2-33.1,31.7-52.7,63.4"/>
				<path class="st6" d="M1156.3,887.3c-3.9-19.8-4.7-166-25.2-204.1"/>
				<path class="st6" d="M1161.2,887.3c17.9-56.9-8.4-98.7,30.5-179.3"/>
				<path class="st6" d="M1154.7,870.7c-0.5-8.1,4.9-25.2,4.9-25.2"/>
				<path class="st6" d="M1153.5,850.2c-0.5-10.9-9.1-19.1-9.1-19.1"/>
				<path class="st6" d="M1152.4,831.1c-0.4-6.5,6.1-20.3,6.1-20.3"/>
				<path class="st6" d="M1151.2,812.4c-0.5-8.1-8.9-18.4-8.9-18.4"/>
				<path class="st6" d="M1149.8,790.8c-0.5-8.4,5.8-18.4,5.8-18.4"/>
				<path class="st6" d="M1148.2,772.5c-0.7-7.4-7.4-11.6-7.4-11.6"/>
				<path class="st6" d="M1155.2,877.7c-0.5-5.8-7.4-15.6-7.4-15.6"/>
				<path class="st6" d="M1146.8,757.6c-1.1-7.2,3.3-20,3.3-20"/>
				<path class="st6" d="M1144.4,736c-1.1-5.3-6-11.2-6-11.2"/>
				<path class="st6" d="M1142.6,867.7c-1.9-8.1,3.2-20.7,3.2-20.7"/>
				<path class="st6" d="M1139.8,855.6c-1.1-7.7-8.4-14.4-8.4-14.4"/>
				<path class="st6" d="M1145.8,876.4c-1.9-5.3-8.1-6.7-8.1-6.7"/>
				<path class="st6" d="M1137.4,833.9c-0.4-4.7,5.1-17.2,6.1-18.7"/>
				<path class="st6" d="M1136.3,816.2c-0.4-6.5-5.8-11.4-5.8-11.4"/>
				<path class="st6" d="M1134.9,795.7c-0.4-4.9,4.2-14.2,4.2-14.2"/>
				<path class="st6" d="M1133.2,779.5c-0.5-4.9-5.1-8.4-5.1-8.4"/>
				<path class="st6" d="M1131.6,767.4c-0.9-4.9,1.8-10,1.8-10"/>
				<path class="st6" d="M1163.8,877.7c1.4-6.3-4.2-17.9-4.2-17.9"/>
				<path class="st6" d="M1166.2,863.8c0.5-4.9,5.8-12.4,5.8-12.4"/>
				<path class="st6" d="M1167.8,848.6c0.2-5.3-6.1-15.9-8.4-17.3"/>
				<path class="st6" d="M1168.2,833.9c0-4.7,4.9-13.1,4.9-13.1"/>
				<path class="st6" d="M1168.2,820.1c0.2-6.1-7.7-18.4-10-20"/>
				<path class="st6" d="M1168.2,805.7c0.4-6.1,6.1-13.8,6.1-13.8"/>
				<path class="st6" d="M1169,791.9c0.5-6.1-3.2-16.3-5.8-18.6"/>
				<path class="st6" d="M1170.4,777.2c0.5-3.7,5.1-10.5,6.5-10.7"/>
				<path class="st6" d="M1172.7,762.5c0.7-3.3,0.2-12.4-1.4-13.3"/>
				<path class="st6" d="M1176.9,745.7c0.5-2.1,4.6-4.2,4.6-4.2"/>
				<path class="st6" d="M1170.1,878.9c1.1-2.1,6.8-5.8,6.8-5.8"/>
				<path class="st6" d="M1174.5,870c1.2-2.8,1.8-14,0-16.1"/>
				<path class="st6" d="M1179.2,859.8c1.4-3,7.2-6.3,7.9-6.5"/>
				<path class="st6" d="M1184.8,848.6c1.1-1.8,1.4-10,1.4-10"/>
				<path class="st6" d="M1190.1,840.7c1.4-1.6,7.9-3.3,7.9-3.3"/>
			</g>
			<path class="st7" d="M1158,887.3c3.5-31.7,3.7-171-32.4-211.3"/>
			<path class="st7" d="M1128.4,679.5c19.8,39,7.5,165.6,25.9,207.8"/>
			<path class="st7" d="M1164,887.3c18.6-38.3-3-107.7,29.9-183.1"/>
			<path class="st7" d="M1113.4,712.9c32.7,81.1,1.2,135.5,35.2,174.4"/>
			<path class="st7" d="M1169.2,887.3c11.6-17.3,23.5-57.9,48.8-63.4"/>
			<path class="st7" d="M1230.3,823.9c-19.3-2.6-47.4,6-59.5,38.3"/>
			<path class="st7" d="M1201.6,764.4c-11.2,15.9-26.4,56.5-24.2,84.6"/>
			<line class="st7" x1="1116.5" y1="952.6" x2="1194.3" y2="952.6"/>
			<rect x="1114.6" y="887.3" class="st7" width="86.8" height="10.9"/>
			<line class="st7" x1="1197.9" y1="898.2" x2="1188.8" y2="952.6"/>
			<line class="st7" x1="1118.3" y1="898.2" x2="1127.2" y2="952.6"/>
			<path class="st7" d="M1158,801.7c3.7-44.6,32.9-95.9,39.9-102.6"/>
			<path class="st7" d="M1143.1,810.8c-3.7-41.1-16.3-82.5-33.4-102.8"/>
			<path class="st7" d="M1206,759.5c-8.9,8.4-30.5,38.9-32.7,73.5"/>
			<line class="st7" x1="1207.6" y1="952.6" x2="1202.1" y2="952.6"/>
			<line class="st6" x1="1126.2" y1="945.9" x2="1189.9" y2="945.9"/>
		</g>
	</g>
</g>
</svg>
