<?xml version="1.0" encoding="utf-8"?>
<!-- Generator: Adobe Illustrator 21.0.0, SVG Export Plug-In . SVG Version: 6.00 Build 0)  -->
<svg version="1.1" id="Layer_1" xmlns="http://www.w3.org/2000/svg" xmlns:xlink="http://www.w3.org/1999/xlink" x="0px" y="0px"
	 viewBox="0 0 100 25" style="enable-background:new 0 0 100 25;" xml:space="preserve">
<style type="text/css">
	.st0{fill:#969799;}
	.st1{fill:#E9E7E7;}
	.st2{fill:#FF6666;}
	.st3{fill:#666973;}
	.st4{fill:#333333;}
	.st5{font-family:'Raleway-Medium';}
	.st6{font-size:6.2062px;}
	.st7{font-family:'Raleway-Bold';}
</style>
<g id="Logo_3_">
	<path class="st0" d="M14.4,9.9c2.1-0.8,4.3-1.7,6.4-2.5c-2.6-0.7-5.1-1.4-7.7-2.1C10.9,6.2,8.8,7.1,6.6,8
		C9.2,8.6,11.8,9.3,14.4,9.9z"/>
	<path class="st1" d="M14.4,15.4c0,1.7,0,3.4,0,5.1c2.1-0.8,4.3-1.7,6.4-2.5c0,0,1.6-1.2,1.3-3.7c0,0-0.1-1.3-1.2-1.3L14.4,15.4z"/>
	<path class="st1" d="M14.4,9.9c0,1.7,0,3.4,0,5.1c2.1-0.8,4.3-1.7,6.4-2.5c0,0,1.6-1.2,1.3-3.7c0,0-0.1-1.3-1.2-1.3L14.4,9.9z"/>
	<path class="st2" d="M6.6,8v9.9l7.7,2.6v-5.1l-4.5-1.3c0-0.1,0-0.3,0-0.4c1.5,0.4,3,0.8,4.5,1.3V9.9L6.6,8z"/>
	<polygon class="st3" points="9.9,13.7 9.9,14.1 14.4,15.4 20.8,12.9 20.3,12.6 14.4,15 	"/>
</g>
<text transform="matrix(1 0 0 1 28.0229 14.8711)"><tspan x="0" y="0" class="st4 st5 st6">Coding Blocks |</tspan><tspan x="45" y="0" class="st5 st6"> </tspan><tspan x="46.5" y="0" class="st2 st7 st6">Online</tspan></text>
</svg>
