<?xml version="1.0" encoding="utf-8"?>
<!-- Generator: Adobe Illustrator 22.1.0, SVG Export Plug-In . SVG Version: 6.00 Build 0)  -->
<svg version="1.1" id="Layer_1" xmlns="http://www.w3.org/2000/svg" xmlns:xlink="http://www.w3.org/1999/xlink" x="0px" y="0px"
	 viewBox="0 0 150 150" style="enable-background:new 0 0 150 150;" xml:space="preserve">
<style type="text/css">
	.st0{display:none;}
	.st1{display:inline;fill:url(#SVGID_1_);}
	.st2{display:inline;fill:url(#SVGID_2_);}
	.st3{display:inline;fill:url(#SVGID_3_);}
	.st4{display:inline;fill:url(#SVGID_4_);}
	.st5{display:inline;fill:url(#SVGID_5_);}
	.st6{display:inline;fill:url(#SVGID_6_);}
	.st7{display:inline;fill:url(#SVGID_7_);}
	.st8{display:inline;fill:#555162;}
	.st9{display:inline;fill:url(#SVGID_8_);}
	.st10{display:inline;fill:url(#SVGID_9_);}
	.st11{display:inline;fill:url(#SVGID_10_);}
	.st12{display:inline;fill:url(#SVGID_11_);}
	.st13{display:inline;fill:url(#SVGID_12_);}
	.st14{display:inline;fill:url(#SVGID_13_);}
	.st15{display:inline;fill:url(#SVGID_14_);}
	.st16{display:inline;fill:url(#SVGID_15_);}
	.st17{fill:#FFC255;}
	.st18{fill:#3A4061;}
	.st19{fill:#EDEDED;}
	.st20{fill:#FF9C43;}
	.st21{fill:#9CCE82;}
	.st22{fill:#99CCFF;}
	.st23{fill:#FFFFFF;}
</style>
<g id="Layer_2_2_">
	<g class="st0">
		
			<linearGradient id="SVGID_1_" gradientUnits="userSpaceOnUse" x1="105.6185" y1="224.9509" x2="142.5574" y2="160.9709" gradientTransform="matrix(1 0 0 -1 0 152)">
			<stop  offset="0" style="stop-color:#63D1FE"/>
			<stop  offset="0.1876" style="stop-color:#5AA9F3"/>
			<stop  offset="0.458" style="stop-color:#4E75E5"/>
			<stop  offset="0.6933" style="stop-color:#464FDB"/>
			<stop  offset="0.8819" style="stop-color:#4138D4"/>
			<stop  offset="1" style="stop-color:#3F2FD2"/>
			<stop  offset="1" style="stop-color:#3E2AD1"/>
			<stop  offset="1" style="stop-color:#3D28D0"/>
		</linearGradient>
		<path class="st1" d="M189.2-35.9H60.5v-5.3c0-5.5,4.3-9.8,9.8-9.8h108.8c5.5,0,9.8,4.3,9.8,9.8v5.3
			C188.9-35.9,189.2-35.9,189.2-35.9z"/>
		
			<linearGradient id="SVGID_2_" gradientUnits="userSpaceOnUse" x1="69.4748" y1="195.5" x2="73.4827" y2="195.5" gradientTransform="matrix(1 0 0 -1 0 152)">
			<stop  offset="0" style="stop-color:#FFFFFF"/>
			<stop  offset="1" style="stop-color:#EEEEEE"/>
		</linearGradient>
		<circle class="st2" cx="71.5" cy="-43.5" r="2"/>
		
			<linearGradient id="SVGID_3_" gradientUnits="userSpaceOnUse" x1="76.033" y1="195.5" x2="80.0409" y2="195.5" gradientTransform="matrix(1 0 0 -1 0 152)">
			<stop  offset="0" style="stop-color:#FFFFFF"/>
			<stop  offset="1" style="stop-color:#EEEEEE"/>
		</linearGradient>
		<circle class="st3" cx="78" cy="-43.5" r="2"/>
		
			<linearGradient id="SVGID_4_" gradientUnits="userSpaceOnUse" x1="82.5914" y1="195.5" x2="86.5991" y2="195.5" gradientTransform="matrix(1 0 0 -1 0 152)">
			<stop  offset="0" style="stop-color:#FFFFFF"/>
			<stop  offset="1" style="stop-color:#EEEEEE"/>
		</linearGradient>
		<circle class="st4" cx="84.7" cy="-43.5" r="2"/>
		
			<linearGradient id="SVGID_5_" gradientUnits="userSpaceOnUse" x1="93.6" y1="195.7" x2="181.3" y2="195.7" gradientTransform="matrix(1 0 0 -1 0 152)">
			<stop  offset="0" style="stop-color:#63D1FE"/>
			<stop  offset="0.5762" style="stop-color:#5AA9F3"/>
			<stop  offset="1" style="stop-color:#4138D4"/>
			<stop  offset="1" style="stop-color:#464FDB"/>
			<stop  offset="1" style="stop-color:#4E75E5"/>
			<stop  offset="1" style="stop-color:#3F2FD2"/>
			<stop  offset="1" style="stop-color:#3E2AD1"/>
			<stop  offset="1" style="stop-color:#3D28D0"/>
		</linearGradient>
		<path class="st5" d="M178-40H96.9c-1.8,0-3.3-1.4-3.3-3.3v-0.8c0-1.8,1.4-3.3,3.3-3.3H178c1.8,0,3.3,1.4,3.3,3.3v0.8
			C181.3-41.4,179.9-40,178-40z"/>
	</g>
	<g class="st0">
		
			<linearGradient id="SVGID_6_" gradientUnits="userSpaceOnUse" x1="61.3561" y1="193.7143" x2="106.0213" y2="116.3516" gradientTransform="matrix(1 0 0 -1 0 152)">
			<stop  offset="0" style="stop-color:#FFBC63"/>
			<stop  offset="0.196" style="stop-color:#FFB861"/>
			<stop  offset="0.4021" style="stop-color:#FFAB5A"/>
			<stop  offset="0.6127" style="stop-color:#FF964E"/>
			<stop  offset="0.8251" style="stop-color:#FF793E"/>
			<stop  offset="1" style="stop-color:#FF5B2D"/>
		</linearGradient>
		<path class="st6" d="M97.1,39.3H70.4c-5.5,0-9.8-4.3-9.8-9.8v-65.2c0-5.5,4.3-9.8,9.8-9.8h26.5c5.5,0,9.8,4.3,9.8,9.8v65.2
			C106.9,35,102.4,39.3,97.1,39.3z"/>
		
			<linearGradient id="SVGID_7_" gradientUnits="userSpaceOnUse" x1="116.1312" y1="198.1371" x2="169.5775" y2="105.5655" gradientTransform="matrix(1 0 0 -1 0 152)">
			<stop  offset="0" style="stop-color:#FFFFFF"/>
			<stop  offset="1" style="stop-color:#EEEEEE"/>
		</linearGradient>
		<path class="st7" d="M179.3,39.3H98.4v-75.2h90.7v65.4C189.2,35,184.6,39.3,179.3,39.3z"/>
		<path class="st8" d="M178.4,21.1h-68.9c-2.2,0-3.9-1.8-3.9-3.9v-39.5c0-2.2,1.8-3.9,3.9-3.9h68.9c2.2,0,3.9,1.8,3.9,3.9v39.5
			C182.3,19.3,180.5,21.1,178.4,21.1z"/>
		
			<linearGradient id="SVGID_8_" gradientUnits="userSpaceOnUse" x1="164.7447" y1="130.1706" x2="173.2961" y2="115.3588" gradientTransform="matrix(1 0 0 -1 0 152)">
			<stop  offset="0" style="stop-color:#FFBC63"/>
			<stop  offset="0" style="stop-color:#FFB861"/>
			<stop  offset="0" style="stop-color:#FFAB5A"/>
			<stop  offset="0.2248" style="stop-color:#FF964E"/>
			<stop  offset="0.8251" style="stop-color:#FF793E"/>
			<stop  offset="1" style="stop-color:#FF5B2D"/>
		</linearGradient>
		<path class="st9" d="M179.2,32.7h-20.4c-1.8,0-3.1-1.4-3.1-3.1v-0.8c0-1.8,1.4-3.1,3.1-3.1h20.4c1.8,0,3.1,1.4,3.1,3.1v0.8
			C182.3,31.3,180.9,32.7,179.2,32.7z"/>
		
			<linearGradient id="SVGID_9_" gradientUnits="userSpaceOnUse" x1="112.3788" y1="170.2" x2="139.0453" y2="170.2" gradientTransform="matrix(1 0 0 -1 0 152)">
			<stop  offset="0" style="stop-color:#FFBC63"/>
			<stop  offset="0.5377" style="stop-color:#FFBC63"/>
			<stop  offset="1" style="stop-color:#FF793E"/>
			<stop  offset="1" style="stop-color:#FF964E"/>
			<stop  offset="1" style="stop-color:#FFAB5A"/>
			<stop  offset="1" style="stop-color:#FFB861"/>
			<stop  offset="1" style="stop-color:#FF5B2D"/>
		</linearGradient>
		<path class="st10" d="M137.3-16.2h-23.2c-1,0-1.8-0.8-1.8-1.8v-0.4c0-1,0.8-1.8,1.8-1.8h23.2c1,0,1.8,0.8,1.8,1.8v0.4
			C139.1-17,138.3-16.2,137.3-16.2z"/>
		
			<linearGradient id="SVGID_10_" gradientUnits="userSpaceOnUse" x1="119.9113" y1="162.8" x2="169.3386" y2="162.8" gradientTransform="matrix(1 0 0 -1 0 152)">
			<stop  offset="0" style="stop-color:#86D63F"/>
			<stop  offset="0" style="stop-color:#C3EF95"/>
			<stop  offset="1" style="stop-color:#86C64A"/>
		</linearGradient>
		<path class="st11" d="M167.6-8.8h-46c-1,0-1.8-0.8-1.8-1.8V-11c0-1,0.8-1.8,1.8-1.8h46c1,0,1.8,0.8,1.8,1.8v0.4
			C169.3-9.6,168.5-8.8,167.6-8.8z"/>
		
			<linearGradient id="SVGID_11_" gradientUnits="userSpaceOnUse" x1="137.9093" y1="166.8886" x2="151.3132" y2="143.6723" gradientTransform="matrix(1 0 0 -1 0 152)">
			<stop  offset="0" style="stop-color:#FFBC63"/>
			<stop  offset="0.5377" style="stop-color:#FFBC63"/>
			<stop  offset="1" style="stop-color:#FF793E"/>
			<stop  offset="1" style="stop-color:#FF964E"/>
			<stop  offset="1" style="stop-color:#FFAB5A"/>
			<stop  offset="1" style="stop-color:#FFB861"/>
			<stop  offset="1" style="stop-color:#FF5B2D"/>
		</linearGradient>
		<path class="st12" d="M167.6-1.3h-46c-1,0-1.8-0.8-1.8-1.8v-0.4c0-1,0.8-1.8,1.8-1.8h46c1,0,1.8,0.8,1.8,1.8v0.4
			C169.3-2.1,168.5-1.3,167.6-1.3z"/>
		
			<linearGradient id="SVGID_12_" gradientUnits="userSpaceOnUse" x1="140.0245" y1="155.1929" x2="147.25" y2="142.6779" gradientTransform="matrix(1 0 0 -1 0 152)">
			<stop  offset="0" style="stop-color:#63D1FE"/>
			<stop  offset="0.5762" style="stop-color:#5AA9F3"/>
			<stop  offset="1" style="stop-color:#4138D4"/>
			<stop  offset="1" style="stop-color:#464FDB"/>
			<stop  offset="1" style="stop-color:#4E75E5"/>
			<stop  offset="1" style="stop-color:#3F2FD2"/>
			<stop  offset="1" style="stop-color:#3E2AD1"/>
			<stop  offset="1" style="stop-color:#3D28D0"/>
		</linearGradient>
		<path class="st13" d="M154.2,5H133c-1,0-1.8-0.8-1.8-1.8V2.8c0-1,0.8-1.8,1.8-1.8h21.2c1,0,1.8,0.8,1.8,1.8v0.4
			C156,4.2,155.2,5,154.2,5z"/>
		
			<linearGradient id="SVGID_13_" gradientUnits="userSpaceOnUse" x1="66.3198" y1="178.3" x2="92.9864" y2="178.3" gradientTransform="matrix(1 0 0 -1 0 152)">
			<stop  offset="0" style="stop-color:#FFBC63"/>
			<stop  offset="0" style="stop-color:#FFBC63"/>
			<stop  offset="1" style="stop-color:#FF793E"/>
			<stop  offset="1" style="stop-color:#FF964E"/>
			<stop  offset="1" style="stop-color:#FFAB5A"/>
			<stop  offset="1" style="stop-color:#FFB861"/>
			<stop  offset="1" style="stop-color:#FF5B2D"/>
		</linearGradient>
		<path class="st14" d="M91.2-24.3H68c-1,0-1.8-0.8-1.8-1.8v-0.4c0-1,0.8-1.8,1.8-1.8h23.2c1,0,1.8,0.8,1.8,1.8v0.4
			C92.9-25.1,92.2-24.3,91.2-24.3z"/>
		
			<linearGradient id="SVGID_14_" gradientUnits="userSpaceOnUse" x1="66.3198" y1="171.8" x2="92.9864" y2="171.8" gradientTransform="matrix(1 0 0 -1 0 152)">
			<stop  offset="0" style="stop-color:#FFBC63"/>
			<stop  offset="0" style="stop-color:#FFBC63"/>
			<stop  offset="1" style="stop-color:#FF793E"/>
			<stop  offset="1" style="stop-color:#FF964E"/>
			<stop  offset="1" style="stop-color:#FFAB5A"/>
			<stop  offset="1" style="stop-color:#FFB861"/>
			<stop  offset="1" style="stop-color:#FF5B2D"/>
		</linearGradient>
		<path class="st15" d="M91.2-17.8H68c-1,0-1.8-0.8-1.8-1.8V-20c0-1,0.8-1.8,1.8-1.8h23.2c1,0,1.8,0.8,1.8,1.8v0.4
			C92.9-18.6,92.2-17.8,91.2-17.8z"/>
		
			<linearGradient id="SVGID_15_" gradientUnits="userSpaceOnUse" x1="66.3198" y1="165.5" x2="92.9864" y2="165.5" gradientTransform="matrix(1 0 0 -1 0 152)">
			<stop  offset="0" style="stop-color:#FFBC63"/>
			<stop  offset="0" style="stop-color:#FFBC63"/>
			<stop  offset="1" style="stop-color:#FF793E"/>
			<stop  offset="1" style="stop-color:#FF964E"/>
			<stop  offset="1" style="stop-color:#FFAB5A"/>
			<stop  offset="1" style="stop-color:#FFB861"/>
			<stop  offset="1" style="stop-color:#FF5B2D"/>
		</linearGradient>
		<path class="st16" d="M91.2-11.5H68c-1,0-1.8-0.8-1.8-1.8v-0.4c0-1,0.8-1.8,1.8-1.8h23.2c1,0,1.8,0.8,1.8,1.8v0.4
			C92.9-12.3,92.2-11.5,91.2-11.5z"/>
	</g>
	<path class="st17" d="M48,123H21.3c-5.5,0-9.8-4.3-9.8-9.8V48c0-5.5,4.3-9.8,9.8-9.8h26.5c5.5,0,9.8,4.3,9.8,9.8v65.2
		C57.8,118.5,53.3,123,48,123z"/>
	<path class="st18" d="M139.9,47.8H11.4v-5.3c0-5.5,4.3-9.8,9.8-9.8H130c5.5,0,9.8,4.3,9.8,9.8L139.9,47.8L139.9,47.8z"/>
	<path class="st19" d="M130.1,123h-81V47.8h90.7v65.4C139.9,118.5,135.6,123,130.1,123z"/>
	<path class="st18" d="M129.3,104.7h-69c-2.2,0-3.9-1.8-3.9-3.9V61.3c0-2.2,1.8-3.9,3.9-3.9h68.9c2.2,0,3.9,1.8,3.9,3.9v39.5
		C133.2,103,131.4,104.7,129.3,104.7z"/>
	<path class="st20" d="M130.1,116.3h-20.4c-1.8,0-3.1-1.4-3.1-3.1v-0.8c0-1.8,1.4-3.1,3.1-3.1h20.4c1.8,0,3.1,1.4,3.1,3.1v0.8
		C133.2,114.9,131.8,116.3,130.1,116.3z"/>
	<path class="st20" d="M88.2,67.4H65c-1,0-1.8-0.8-1.8-1.8v-0.4c0-1,0.8-1.8,1.8-1.8h23.2c1,0,1.8,0.8,1.8,1.8v0.4
		C90,66.6,89.2,67.4,88.2,67.4z"/>
	<path class="st21" d="M118.5,74.9h-46c-1,0-1.8-0.8-1.8-1.8v-0.4c0-1,0.8-1.8,1.8-1.8h46c1,0,1.8,0.8,1.8,1.8v0.4
		C120.2,74.1,119.4,74.9,118.5,74.9z"/>
	<path class="st20" d="M118.5,82.3h-46c-1,0-1.8-0.8-1.8-1.8v-0.4c0-1,0.8-1.8,1.8-1.8h46c1,0,1.8,0.8,1.8,1.8v0.4
		C120.2,81.6,119.4,82.3,118.5,82.3z"/>
	<path class="st22" d="M105.1,90.6H83.9c-1,0-1.8-0.8-1.8-1.8v-0.4c0-1,0.8-1.8,1.8-1.8h21.2c1,0,1.8,0.8,1.8,1.8v0.4
		C106.9,89.8,106.1,90.6,105.1,90.6z"/>
	<circle class="st23" cx="22.4" cy="40.1" r="2"/>
	<circle class="st23" cx="28.9" cy="40.1" r="2"/>
	<circle class="st23" cx="35.4" cy="40.1" r="2"/>
</g>
</svg>
