<?xml version="1.0" encoding="utf-8"?>
<!-- Generator: Adobe Illustrator 22.1.0, SVG Export Plug-In . SVG Version: 6.00 Build 0)  -->
<svg version="1.1" id="Capa_1" xmlns="http://www.w3.org/2000/svg" xmlns:xlink="http://www.w3.org/1999/xlink" x="0px" y="0px"
	 viewBox="0 0 512 512" style="enable-background:new 0 0 512 512;" xml:space="preserve">
<style type="text/css">
	.st0{fill:#FF6666;}
</style>
<g>
	<g>
		<circle class="st0" cx="256" cy="376.5" r="23.7"/>
		<path class="st0" d="M252.8,315.1c7.2,0,13-5.8,13-13V178.2c0-7.2-5.8-13-13-13c-7.2,0-13,5.8-13,13v123.8
			C239.8,309.2,245.6,315.1,252.8,315.1z"/>
		<path class="st0" d="M303.5,75.2l-0.6-0.9c-12.1-18.6-24.5-37.8-46.9-37.8c-23.3,0-35.5,19.5-47.3,38.4c-0.1,0.1-0.4,0.7-0.5,0.8
			L1.8,425.4c-1.2,2-1.8,3.1-1.8,5.4c0,25.4,20.4,44.8,45.5,44.8h420.9c25.1,0,45.5-19.4,45.5-44.8c0-2.3-0.6-4-1.8-6L303.5,75.2z
			 M466.5,449.5H45.5c-9.5,0-17.7-6.2-19.2-15.6L230.8,88.1c10.1-16.2,16.8-25.8,25.2-25.8c8.2,0,16,12.2,25,26.1l204.6,345.5
			C484.2,443.2,476,449.5,466.5,449.5z"/>
	</g>
</g>
</svg>
