<?xml version="1.0" encoding="utf-8"?>
<!-- Generator: Adobe Illustrator 22.1.0, SVG Export Plug-In . SVG Version: 6.00 Build 0)  -->
<svg version="1.1" id="Layer_1" xmlns="http://www.w3.org/2000/svg" xmlns:xlink="http://www.w3.org/1999/xlink" x="0px" y="0px"
	 viewBox="0 0 800 600" style="enable-background:new 0 0 800 600;" xml:space="preserve">
<style type="text/css">
	.st0{fill:#F5F5F7;}
	.st1{fill:none;stroke:#DCDEE8;stroke-width:2;stroke-linecap:round;stroke-linejoin:round;stroke-miterlimit:10;}
	.st2{fill:none;stroke:#DCDEE8;stroke-width:1.5;stroke-linecap:round;stroke-linejoin:round;stroke-miterlimit:10;}
	.st3{fill:none;stroke:#DCDEE8;stroke-width:3;stroke-linejoin:round;stroke-miterlimit:10;}
	.st4{fill:#F7F7F7;}
	.st5{fill:#EFEFEF;}
	.st6{fill:#FFFFFF;}
	.st7{fill:none;stroke:#E8E8E8;stroke-width:1.5;stroke-linecap:round;stroke-linejoin:round;stroke-miterlimit:10;}
	.st8{fill:none;stroke:#E8E8E8;stroke-width:3;stroke-linecap:round;stroke-linejoin:round;stroke-miterlimit:10;}
	.st9{fill:#FCFCFC;}
	.st10{fill:none;stroke:#EFEFEF;stroke-width:3;stroke-linecap:round;stroke-linejoin:round;stroke-miterlimit:10;}
	.st11{fill:#EBB886;}
	.st12{fill:#48FFFF;}
	.st13{fill:#D2FFFE;}
	.st14{fill:#E2E2E2;}
	.st15{fill:#51576B;}
	.st16{fill:#D1F7C9;}
	.st17{fill:#FFF5DE;}
	.st18{fill:#FF7382;}
	.st19{fill:#00D3FF;}
	.st20{fill:#FFE499;}
	.st21{fill:#BEE1E5;}
	.st22{opacity:0.35;fill:#141414;enable-background:new    ;}
	.st23{opacity:0.35;fill:#FFFFFF;enable-background:new    ;}
	.st24{opacity:0.15;fill:#FFFFFF;enable-background:new    ;}
	.st25{opacity:0.5;fill:#FFFFFF;enable-background:new    ;}
	.st26{opacity:8.000000e-02;fill:#141414;enable-background:new    ;}
	.st27{opacity:0.12;fill:#141414;enable-background:new    ;}
	.st28{opacity:0.3;fill:#FFFFFF;enable-background:new    ;}
	.st29{opacity:0.25;fill:#141414;enable-background:new    ;}
	.st30{opacity:0.15;fill:#141414;enable-background:new    ;}
	.st31{opacity:0.1;fill:#141414;enable-background:new    ;}
	.st32{fill:#141414;}
	.st33{opacity:5.000000e-02;fill:#141414;enable-background:new    ;}
	.st34{opacity:0.75;fill:#FFFFFF;enable-background:new    ;}
	.st35{opacity:0.59;fill:#FFFFFF;enable-background:new    ;}
	.st36{fill:none;stroke:#3A4061;stroke-width:2;stroke-linecap:round;stroke-linejoin:round;stroke-miterlimit:10;}
	.st37{fill:none;stroke:#3A4061;stroke-width:4;stroke-linecap:round;stroke-linejoin:round;stroke-miterlimit:10;}
	.st38{fill:#F0F0F2;stroke:#3A4061;stroke-miterlimit:10;}
	.st39{fill:none;stroke:#3A4061;stroke-width:6;stroke-linecap:round;stroke-linejoin:round;stroke-miterlimit:10;}
	.st40{fill:none;stroke:#3A4061;stroke-width:2;stroke-linejoin:round;stroke-miterlimit:10;}
	.st41{fill:none;stroke:#3A4061;stroke-width:3.5;stroke-linejoin:round;stroke-miterlimit:10;}
	.st42{fill:none;stroke:#3A4061;stroke-width:3.5;stroke-linecap:round;stroke-linejoin:round;stroke-miterlimit:10;}
	.st43{fill:none;stroke:#3A4061;stroke-width:3.5;stroke-miterlimit:10;}
	.st44{fill:#8DBF75;}
	.st45{opacity:0.1;enable-background:new    ;}
	.st46{opacity:0.25;fill:#FFFFFF;enable-background:new    ;}
	.st47{fill:none;stroke:#333333;stroke-width:2;stroke-linecap:round;stroke-linejoin:round;stroke-miterlimit:10;}
	.st48{fill:none;stroke:#E8E8E8;stroke-width:2;stroke-linecap:round;stroke-linejoin:round;stroke-miterlimit:10;}
</style>
<g id="background">
	<g id="colors_1_">
		<g id="XMLID_2_">
			<g>
				<path class="st0" d="M499.5,423.4v7.9c0,2.4-1.9,4.2-4.1,4.2h-11.8v-16.4h11.8C497.6,419.1,499.5,421,499.5,423.4z M495.7,427.3
					c0-2.5-2-4.6-4.6-4.6c-2.5,0-4.6,2-4.6,4.6c0,2.5,2.1,4.6,4.6,4.6C493.7,431.9,495.7,429.9,495.7,427.3z"/>
				<path class="st0" d="M491.2,422.8c2.5,0,4.6,2,4.6,4.6c0,2.5-2,4.6-4.6,4.6c-2.5,0-4.6-2-4.6-4.6S488.6,422.8,491.2,422.8z"/>
				<path class="st0" d="M483.5,419.1v16.4h-6l0,0v-2.7v-1.3c1.7-0.7,2.8-2.3,2.8-4.2c0-2.5-2-4.6-4.6-4.6c-2.5,0-4.6,2-4.6,4.6
					c0,1.9,1.2,3.5,2.8,4.2v1.3v2.7h-0.5h-1.9c-2.3,0-4.1-1.9-4.1-4.2v-7.9c0-2.4,1.8-4.3,4.1-4.3H483.5z"/>
				<path class="st0" d="M480.3,427.3c0,1.9-1.2,3.5-2.8,4.2v1.3H474v-1.3c-1.7-0.7-2.8-2.3-2.8-4.2c0-2.5,2-4.6,4.6-4.6
					C478.3,422.8,480.3,424.8,480.3,427.3z"/>
				<path class="st0" d="M477.5,435.5v0.4c0,0.7-0.5,1.2-1.2,1.2h-1c-0.7,0-1.2-0.5-1.2-1.2v-0.4v-2.7h3.5L477.5,435.5L477.5,435.5z
					"/>
			</g>
		</g>
	</g>
	<g id="lines_1_">
		<line class="st1" x1="489.4" y1="427.3" x2="489.5" y2="427.3"/>
		<circle class="st2" cx="491.2" cy="427.3" r="4.6"/>
		<line class="st1" x1="492.8" y1="427.3" x2="492.8" y2="427.3"/>
		<path class="st3" d="M477.5,435.5h17.8c2.3,0,4.1-1.9,4.1-4.2v-7.9c0-2.4-1.9-4.3-4.1-4.3h-11.8h-11.8c-2.3,0-4.1,1.9-4.1,4.3v7.9
			c0,2.4,1.8,4.2,4.1,4.2h1.9"/>
		<path class="st2" d="M480.3,427.3c0-2.5-2-4.6-4.6-4.6c-2.5,0-4.6,2-4.6,4.6c0,1.9,1.2,3.5,2.8,4.2v4.4c0,0.7,0.5,1.2,1.2,1.2h1
			c0.7,0,1.2-0.5,1.2-1.2v-4.4C479.1,430.9,480.3,429.2,480.3,427.3z"/>
		<path class="st2" d="M473.3,427.8c0.3,0.3,0.7,1,0.7,1v2.7"/>
		<path class="st2" d="M478.2,427.8c-0.3,0.3-0.7,1-0.7,1v2.7"/>
		<path class="st3" d="M475.7,437.2c0,12.1-9.8,21.9-21.9,21.9s-21.9-9.8-21.9-21.9v-40"/>
		<line class="st2" x1="474" y1="432.8" x2="477.5" y2="432.8"/>
		<line class="st2" x1="483.5" y1="419.1" x2="483.5" y2="435.5"/>
	</g>
</g>
<g id="bush">
	<g id="color_4_">
		<g id="XMLID_31_">
			<g>
				<path class="st4" d="M644.9,397.4L644.9,397.4c-15.4,3.4-22.5,27.9-29.5,38.3h-3.1c2.1-4.4,3.4-9.5,4.2-15.1c1.1-3,2.4-5.6,4-8
					C626.8,402.7,636.3,398.4,644.9,397.4z"/>
				<polygon class="st4" points="634.9,435.8 634.9,442.3 632.7,442.3 584.7,442.3 582.5,442.3 582.5,435.8 603,435.8 606.4,435.8 
					608.7,435.8 612.3,435.8 615.4,435.8 				"/>
				<path class="st4" d="M634.9,361.6L634.9,361.6c-6.7,9.7-15.9,34.2-14.5,51.1l0,0c-1.5,2.3-2.9,5-4,8c0.7-5.4,1-11.3,1.2-17.6
					h0.1C618.9,385.1,628.7,368.9,634.9,361.6z"/>
				<polygon class="st4" points="632.7,442.3 627.9,471.2 589.4,471.2 584.7,442.3 				"/>
				<polygon class="st4" points="627.9,471.2 627.3,475.2 590.1,475.2 589.4,471.2 				"/>
				<path class="st4" d="M608.7,384c1.9-23.3,15.4-49.4,21.7-58.7c-12.5,28.6-12,55.7-12.7,77.8c-0.2,6.3-0.5,12.2-1.2,17.6
					c-0.8,5.6-2,10.8-4.2,15.1h-3.6C609.6,427.5,610.1,406.8,608.7,384C608.7,384.1,608.7,384.1,608.7,384z"/>
				<path class="st4" d="M608.7,384.1c1.5,22.7,1,43.4,0,51.7h-2.3c-4.3-9.8-5.8-27.2-6.7-46.2v-0.1c-1.5-30.3-1.5-64.7-8.9-79.2
					C601.9,325,606.9,356.1,608.7,384.1L608.7,384.1z"/>
				<path class="st4" d="M606.4,435.8H603c-20.5-23.5-1.5-56.3-21.2-105.3c9.2,13,15.9,36,17.9,59v0.1
					C600.6,408.6,602.2,426,606.4,435.8z"/>
			</g>
		</g>
	</g>
	<g id="shadow_1_">
		<g>
			<rect x="585" y="442.4" class="st5" width="47.2" height="3.1"/>
			<path class="st5" d="M628,375l1-4.3c-4.9,6-10.2,21.3-11.2,29.3l-0.5,18.2l3.5-6.1C618,400.7,628,375,628,375z"/>
			<path class="st5" d="M606.3,435.9c-1-2.3-2.1-6.8-3-10.8C604.7,430.8,606.3,435.9,606.3,435.9h2.3c1-3.3,1-23.6,1-23.6
				c-1.9,13.6-7.5,5.3-8.3,0c-0.1,1.6,0.2,3.7,0.6,6.1c-2.1,9.5-7.3,1.1-9.1-13.5c-1,19.4,10.2,30.9,10.2,30.9L606.3,435.9
				L606.3,435.9z"/>
			<path class="st5" d="M611.8,435.9l3.5-0.1l7.2-13.5c-1.8,3.6-5.8,4.4-7.2,3.7l0,0c1-4.8,1-8.7,1-8.7c-0.6,6.4-6.1,9-6.7,5.5
				l-0.1,13.1H611.8z"/>
		</g>
		<g>
			<polygon class="st6" points="582.5,438.1 588.6,438.1 588.6,442.1 603.2,442.4 603.1,438.1 634.9,438.1 634.9,435.8 582.5,435.8 
							"/>
			<polygon class="st6" points="595.2,475.2 605.2,475.2 604.6,442.4 603.2,442.4 590.1,442.4 			"/>
			<path class="st6" d="M591.9,390.5l0.7,18.8c1.2-3.2,1.1-18.1,3.4-18.8c2-0.7,4,7.5,4,7.5l-1.5-18.7c-4.1,15.4-7-5.4-7.8-12.3
				l1.2,14.6L591.9,390.5z"/>
			<path class="st6" d="M606.3,356.4c-5.7-35.3-15.6-46.3-15.6-46.3c8,14.7,9.3,82.2,9.3,82.2C603.9,370.3,600.6,346.3,606.3,356.4z
				"/>
			<path class="st6" d="M626.9,331.8c-3.7,4-21.2,40.6-17.9,58.8C612.4,408.8,607.7,371,626.9,331.8z"/>
			<path class="st6" d="M616.4,424c1.5-4.1,11.4-21.9,15.7-17.6l9.4-8.4C641.5,398,619.2,402.9,616.4,424z"/>
		</g>
	</g>
	<g id="lines_8_">
		<g>
			<path class="st7" d="M581.8,330.5c21.2,38.7,7.1,82.2,23,105.3"/>
			<path class="st7" d="M644.9,397.6c-22.6,6.8-20,19.1-31.8,38.3"/>
			<path class="st7" d="M607.6,435.8c-2.3-11.9-2.9-100.2-15.2-123.3"/>
			<path class="st7" d="M610.5,435.8c10.8-34.3-5.1-59.6,18.4-108.2"/>
			<path class="st7" d="M606.6,425.8c-0.3-4.9,3-15.2,3-15.2"/>
			<path class="st7" d="M605.9,413.4c-0.4-6.6-5.5-11.5-5.5-11.5"/>
			<path class="st7" d="M605.2,401.9c-0.2-4,3.7-12.3,3.7-12.3"/>
			<path class="st7" d="M604.6,390.5c-0.3-4.8-5.3-11-5.3-11"/>
			<path class="st7" d="M603.7,377.6c-0.4-5,3.4-11.1,3.4-11.1"/>
			<path class="st7" d="M602.8,366.5c-0.4-4.5-4.4-7-4.4-7"/>
			<path class="st7" d="M606.9,430c-0.3-3.4-4.5-9.4-4.5-9.4"/>
			<path class="st7" d="M601.9,357.5c-0.6-4.3,2-12.1,2-12.1"/>
			<path class="st7" d="M600.4,344.5c-0.6-3.1-3.6-6.8-3.6-6.8"/>
			<path class="st7" d="M599.4,424c-1.2-4.8,1.9-12.5,1.9-12.5"/>
			<path class="st7" d="M597.7,416.6c-0.7-4.6-5-8.6-5-8.6"/>
			<path class="st7" d="M601.3,429.3c-1.2-3.1-4.8-4-4.8-4"/>
			<path class="st7" d="M596.2,403.6c-0.2-2.9,3.1-10.4,3.7-11.3"/>
			<path class="st7" d="M595.5,392.9c-0.2-4-3.5-6.9-3.5-6.9"/>
			<path class="st7" d="M594.7,380.6c-0.2-3,2.6-8.6,2.6-8.6"/>
			<path class="st7" d="M593.7,370.7c-0.4-3-3.1-5.1-3.1-5.1"/>
			<path class="st7" d="M592.7,363.5c-0.5-3,1-6,1-6"/>
			<path class="st7" d="M612.1,430c0.8-3.8-2.6-10.8-2.6-10.8"/>
			<path class="st7" d="M613.7,421.6c0.4-3,3.4-7.5,3.4-7.5"/>
			<path class="st7" d="M614.6,412.4c0.1-3.2-3.7-9.7-5-10.5"/>
			<path class="st7" d="M614.8,403.6c0-2.9,2.9-7.9,2.9-7.9"/>
			<path class="st7" d="M614.8,395.2c0.1-3.7-4.7-11-6.1-12"/>
			<path class="st7" d="M614.8,386.6c0.2-3.7,3.7-8.3,3.7-8.3"/>
			<path class="st7" d="M615.3,378.2c0.3-3.7-1.9-9.8-3.4-11.2"/>
			<path class="st7" d="M616.1,369.4c0.3-2.2,3.1-6.4,4-6.4"/>
			<path class="st7" d="M617.5,360.5c0.4-2,0.1-7.5-0.9-8"/>
			<path class="st7" d="M620,350.4c0.4-1.3,2.8-2.5,2.8-2.5"/>
			<path class="st7" d="M615.9,430.8c0.7-1.3,4.1-3.4,4.1-3.4"/>
			<path class="st7" d="M618.6,425.4c0.7-1.7,1.1-8.4,0-9.7"/>
			<path class="st7" d="M621.4,419.2c0.8-1.8,4.3-3.8,4.8-3.9"/>
			<path class="st7" d="M624.8,412.4c0.6-1,0.8-6,0.8-6"/>
			<path class="st7" d="M628,407.7c0.9-1,4.8-2,4.8-2"/>
		</g>
		<path class="st8" d="M608.7,435.8c2.1-19.1,2.3-103.3-19.5-127.5"/>
		<path class="st8" d="M590.8,310.3c11.9,23.6,4.5,99.9,15.7,125.5"/>
		<path class="st8" d="M612.3,435.8c11.2-23.2-1.8-65,18.1-110.5"/>
		<path class="st8" d="M581.8,330.5c19.8,48.9,0.7,81.8,21.2,105.3"/>
		<path class="st8" d="M615.4,435.8c7-10.5,14.1-35,29.5-38.3"/>
		<path class="st8" d="M652.4,397.6c-11.6-1.6-28.7,3.6-35.9,23.1"/>
		<path class="st8" d="M634.9,361.6c-6.7,9.7-15.9,34.2-14.6,51.1"/>
		<line class="st8" x1="583.6" y1="475.2" x2="630.6" y2="475.2"/>
		<rect x="582.5" y="435.8" class="st8" width="52.5" height="6.6"/>
		<line class="st8" x1="632.7" y1="442.4" x2="627.3" y2="475.2"/>
		<line class="st8" x1="584.7" y1="442.4" x2="590.1" y2="475.2"/>
		<path class="st8" d="M608.7,384.1c2.2-27,19.9-57.9,24.1-62"/>
		<path class="st8" d="M599.7,389.7c-2.2-24.9-9.8-49.7-20.2-62"/>
		<path class="st8" d="M637.6,358.6c-5.3,5-18.4,23.5-19.8,44.4"/>
		<line class="st8" x1="638.5" y1="475.2" x2="635.3" y2="475.2"/>
		<line class="st7" x1="589.4" y1="471.2" x2="627.9" y2="471.2"/>
	</g>
</g>
<g id="window_1_">
	<g id="color_1_">
		<g id="XMLID_4_">
			<g>
				<polygon class="st9" points="525.7,353.7 525.7,363.3 329.5,363.3 329.5,353.7 333.4,353.7 425.6,353.7 429.5,353.7 
					521.8,353.7 				"/>
				<path class="st9" d="M521.8,161.5v192.3h-92.3V161.5H521.8z M514.1,346.1v-85.6v-91.4h-76.9v91.4v85.6H514.1z"/>
				<polygon class="st9" points="514.1,260.5 514.1,346.1 437.2,346.1 437.2,260.5 442.9,260.5 442.9,340.3 472.8,340.3 
					472.8,260.5 478.5,260.5 478.5,340.3 508.4,340.3 508.4,260.5 				"/>
				<path class="st9" d="M514.1,169.1v91.4h-5.8h-29.8h-5.8h-29.8h-5.8v-91.4H514.1z M508.4,254.7v-79.8h-29.8v79.8H508.4z
					 M472.8,254.7v-79.8H443v79.8H472.8z"/>
				<polygon class="st9" points="429.5,161.5 429.5,353.7 425.6,353.7 425.6,161.5 				"/>
				<path class="st9" d="M425.6,161.5v192.3h-92.3V161.5H425.6z M418,346.1v-85.6v-91.4H341v91.4v85.6H418z"/>
				<polygon class="st9" points="418,260.5 418,346.1 341,346.1 341,260.5 346.8,260.5 346.8,340.3 376.6,340.3 376.6,260.5 
					382.4,260.5 382.4,340.3 412.2,340.3 412.2,260.5 				"/>
				<path class="st9" d="M418,169.1v91.4h-5.8h-29.8h-5.8h-29.8H341v-91.4H418z M412.2,254.7v-79.8h-29.8v79.8H412.2z M376.6,254.7
					v-79.8h-29.8v79.8H376.6z"/>
			</g>
		</g>
	</g>
	<g id="lines_2_">
		<rect x="329.5" y="353.7" class="st10" width="196.1" height="9.6"/>
		<polyline class="st10" points="521.8,161.5 521.8,353.7 333.4,353.7 333.4,161.5 521.8,161.5 		"/>
		<line class="st10" x1="430.4" y1="161.5" x2="430.4" y2="353.7"/>
		<line class="st10" x1="424.7" y1="353.7" x2="424.7" y2="161.5"/>
		<rect x="341" y="169.1" class="st10" width="76.9" height="176.9"/>
		<line class="st10" x1="412.2" y1="254.7" x2="382.4" y2="254.7"/>
		<line class="st10" x1="376.6" y1="254.7" x2="346.8" y2="254.7"/>
		<line class="st10" x1="341" y1="260.5" x2="418" y2="260.5"/>
		<line class="st10" x1="376.6" y1="340.3" x2="376.6" y2="260.5"/>
		<line class="st10" x1="376.6" y1="254.7" x2="376.6" y2="174.9"/>
		<line class="st10" x1="382.4" y1="340.3" x2="382.4" y2="260.5"/>
		<line class="st10" x1="382.4" y1="254.7" x2="382.4" y2="174.9"/>
		<polyline class="st10" points="382.4,174.9 412.2,174.9 412.2,254.7 		"/>
		<polyline class="st10" points="346.8,254.7 346.8,174.9 376.6,174.9 		"/>
		<polyline class="st10" points="346.8,260.5 346.8,340.3 376.6,340.3 		"/>
		<polyline class="st10" points="412.2,260.5 412.2,340.3 382.4,340.3 		"/>
		<rect x="437.2" y="169.1" class="st10" width="76.9" height="176.9"/>
		<line class="st10" x1="508.4" y1="254.7" x2="478.5" y2="254.7"/>
		<line class="st10" x1="472.8" y1="254.7" x2="442.9" y2="254.7"/>
		<line class="st10" x1="437.2" y1="260.5" x2="514.1" y2="260.5"/>
		<line class="st10" x1="472.8" y1="340.3" x2="472.8" y2="260.5"/>
		<line class="st10" x1="472.8" y1="254.7" x2="472.8" y2="174.9"/>
		<line class="st10" x1="478.5" y1="340.3" x2="478.5" y2="260.5"/>
		<line class="st10" x1="478.5" y1="254.7" x2="478.5" y2="174.9"/>
		<polyline class="st10" points="478.5,174.9 508.4,174.9 508.4,254.7 		"/>
		<polyline class="st10" points="442.9,254.7 442.9,174.9 472.8,174.9 		"/>
		<polyline class="st10" points="442.9,260.5 442.9,340.3 472.8,340.3 		"/>
		<polyline class="st10" points="508.4,260.5 508.4,340.3 478.5,340.3 		"/>
	</g>
</g>
<g id="main">
	<g id="colors">
		<g id="XMLID_3_">
			<g>
				<path class="st11" d="M588.3,363c3.3,0,6,2.7,6,6c0,1.7-0.7,3.2-1.8,4.2c-1.1,1.1-2.6,1.8-4.2,1.8h-13.1h-12.4l0,0h-228l0,0H239
					h-13.1c-3.3,0-6-2.7-6-6c0-1.7,0.7-3.2,1.8-4.2c1.1-1.1,2.6-1.8,4.2-1.8h21.8h43.7h112.4h56.5H499h22.5h38h8.9H588.3z"/>
				<path class="st11" d="M575.1,375v94.2c0,3.4-2.8,6.2-6.2,6.2s-6.2-2.8-6.2-6.2V375H575.1z"/>
				<polygon class="st12" points="573.6,340.3 573,347.3 554.6,347.3 554.1,340.3 				"/>
				<polygon class="st13" points="573,347.3 572.6,351.9 555,351.9 554.6,347.3 				"/>
				<path class="st12" d="M572.6,351.9l-0.5,6.8c-0.2,2.4-1.8,4.3-3.8,4.3h-8.9c-2,0-3.6-1.8-3.8-4.3l-0.5-6.8H572.6z"/>
				<rect x="334.8" y="375" class="st11" width="228" height="22.1"/>
				<path class="st14" d="M521.3,363h-22.5c0.2-4.5,5.2-8,11.2-8S521.1,358.5,521.3,363z"/>
				<path class="st14" d="M492.9,328v8.7c0,4.4-3.6,8-8,8h-4.6l-0.6-8l-19.1,1.4l0.5,6.5l-0.9,0.1h-17.5h-21.5h-21.5l0.5-3.4
					l-17.7-2.4l-0.8,5.8h-0.3H379c-4.4,0-8-3.6-8-8v-7.3V328H492.9z"/>
				<path class="st14" d="M492.9,270.4V328h-122v-57.7c0-4.4,3.6-8,8-8h106C489.3,262.4,492.9,266,492.9,270.4z M487,322.5v-50.9
					c0-2.1-1.7-3.8-3.8-3.8H380.4c-2.1,0-3.8,1.7-3.8,3.8v50.9H487z"/>
				<path class="st15" d="M487,271.6v50.9H376.7v-50.9c0-2.1,1.7-3.8,3.8-3.8h102.8C485.3,267.9,487,269.6,487,271.6z"/>
				<path class="st16" d="M484.4,349.6c0.2,2.1-1.4,3.9-3.5,4.1l-15.3,1.1c2.1-0.2,3.7-2,3.5-4.1l7.7-0.6l3.8-0.3L484.4,349.6z"/>
				<path class="st16" d="M480.3,346.1l0.3,3.8l-3.8,0.3l-7.7,0.6c0.2,2.1-1.4,3.9-3.5,4.1s-3.9-1.4-4.1-3.5l-0.5-6.7l-0.5-6.5
					l19.1-1.4l0.6,8L480.3,346.1z"/>
				<path class="st14" d="M460.1,363h-56.5c0-3.5,2.4-6.3,5.4-6.3c4.3,0,7.7-1.8,10.1-5c1.4-1.9,1.4-4.2,2-7h21.5
					c1.6,7.3,5.3,12,12.1,12c1.5,0,2.8,0.7,3.8,1.8C459.5,359.7,460.1,361.2,460.1,363z"/>
				<path class="st17" d="M400.1,341.3l-0.5,3.4l-1.2,8.8c-0.3,1.9-2,3.3-4,3c-1.9-0.3-3.3-2-3-4l-7.2-1l-3.5-0.5l0.5-3.5l0.4-2.9
					l0.8-5.8L400.1,341.3z"/>
				<path class="st17" d="M394.5,356.6l-14.2-1.9c-1.9-0.3-3.3-2-3-4l3.5,0.5l3.5,0.5l7.2,1C391.2,354.5,392.5,356.3,394.5,356.6z"
					/>
				<path class="st18" d="M350.7,335.2v18.6c0,4.5-3.7,8.2-8.2,8.2h-7.6c-4.5,0-8.2-3.7-8.2-8.2v-18.6H350.7z"/>
				<path class="st11" d="M334.7,425.2v50.2h-95.8v-50.2H334.7z M322.4,465.5V435h-71.1v30.5H322.4z"/>
				<path class="st11" d="M334.7,375v50.2h-95.8V375H334.7z M322.4,415.3v-30.4h-71.1v30.4H322.4z"/>
				<rect x="251.2" y="435.1" class="st11" width="71.1" height="30.5"/>
				<rect x="251.2" y="384.9" class="st11" width="71.1" height="30.5"/>
				<path class="st19" d="M293,276.5l8.6,8.6l-6.2,6.2L285,301.7l-6.2,6.2l-8.6-8.6c-4.6-4.6-5.9-11.3-3.7-17l0,0l9.6-9.6l0,0
					c1.8-0.7,3.7-1,5.6-1C285.7,271.8,289.9,273.3,293,276.5z"/>
				<path class="st20" d="M295.4,291.3c1.3,1.3,2.1,3.1,2.1,5.1c0,4.1-3.3,7.4-7.4,7.4c-2,0-3.8-0.8-5.1-2.1L295.4,291.3z"/>
				<path class="st19" d="M291.2,360.8v2.2h-43.7v-2.2c0-3.9,3.2-7.1,7.1-7.1h6h17.5h6C288,353.7,291.2,356.8,291.2,360.8z"/>
				<path class="st19" d="M278.1,353.7h-17.5c0-4.8,3.9-8.8,8.8-8.8C274.2,344.9,278.1,348.8,278.1,353.7z"/>
				<path class="st19" d="M276,272.8l-9.6,9.6c-2.6-2.6-2.6-6.9,0-9.6C269.1,270.1,273.4,270.1,276,272.8L276,272.8L276,272.8z"/>
				<path class="st21" d="M238.9,306.9c3.9,0,7,3.1,7,7c0,3.8-3.1,6.9-7,6.9c-3.8,0-6.9-3.1-6.9-6.9
					C231.9,310,235.1,306.9,238.9,306.9z"/>
			</g>
		</g>
	</g>
	<g id="shadows">
		<rect x="334.7" y="376.7" class="st22" width="227.6" height="20"/>
		<path class="st23" d="M350.7,335.2h-23.6v3.5h4.6v6.9c0,1.9,1.6,3.5,3.5,3.5s3.5-1.6,3.5-3.5v-6.9h12V335.2z"/>
		<polygon class="st24" points="404.8,267.9 376.9,295.7 376.9,314.6 423.7,267.9 		"/>
		<polygon class="st24" points="435.9,267.9 380.7,323.1 419,323.1 474.5,267.5 		"/>
		<polygon class="st25" points="384.8,328 373.1,339.8 373.1,342.8 375.1,344.8 381.6,344.8 382.4,338.9 386.5,339.5 398.1,327.8 		
			"/>
		<polygon class="st25" points="401,329 389.9,340.1 392.9,340.1 404.4,328.7 		"/>
		<path class="st26" d="M465.8,337.7l13.8-1l0.6,8h4.6l6.2-2.9l1.8-5.1V328h-6.5h-5.7c-0.5,1.9-1.8,3.6-3.3,5
			C474.3,335.8,469.8,337.4,465.8,337.7"/>
		<rect x="400.3" y="341.2" class="st27" width="60.2" height="3"/>
		<path class="st26" d="M461.8,352.5c2.1,0,14.1-1.5,14.7-15.6l3.1-0.2l1,12.9h3.8l-0.4,2l-2.2,2.1l-16.2,1.2L461.8,352.5z"/>
		<path class="st28" d="M461.4,349.6l0.4-1.5c1.2-4.3,4.4-7.8,8.7-9.2l4.8-1.6l-14.7,0.8L461.4,349.6z"/>
		<path class="st26" d="M380.4,351.1c8.8,1.9,16.7,1.6,19.4-10l-2.2,14.2l-2.7,1.2l-16.2-2.5l-1.6-3.1L380.4,351.1z"/>
		<path class="st6" d="M381.1,348.3l1.3-9.4l10.2,1.4l-2.8,0.3c-3.3,0.4-6.3,2.5-7.6,5.5L381.1,348.3z"/>
		<rect x="421.1" y="343.9" class="st29" width="21.7" height="6.4"/>
		<rect x="238.9" y="374.8" class="st29" width="95.9" height="5.7"/>
		<path class="st26" d="M265.9,291.7c14,12.1,31.5-1.3,30.4-12l5.3,5.3c-4.7,4.7-9.4,9.4-14.2,14.2c-2.9,2.9-5.8,5.8-8.7,8.7
			c-4.1-4.4-8.2-8.7-12.3-13L265.9,291.7z"/>
		<path class="st30" d="M285,354.2c0-0.1,0-0.3,0-0.5l0.8,0.5H285z"/>
		<path class="st26" d="M290,356.8l-1-0.6l-3.2-2H285c0,1.1-0.8,2.1-2.2,2.8c-6.3,3.5-24.6,3-35.2,2.5l-0.5,3.5h44.8L290,356.8z"/>
		<path class="st25" d="M249.7,354.2H285c0,1.1-0.8,2.1-2.2,2.8h-33.1L249.7,354.2L249.7,354.2z"/>
		<polygon class="st28" points="289,354.2 289,356.2 285.8,354.2 		"/>
		<path class="st31" d="M491.5,375c27.5,0.3,52.4-1.1,53.2-12H592l2.2,6l-3,5.2l-43.8,0.8H491.5z"/>
		<path class="st30" d="M563.8,373.4H438c-4.2-0.2-8.5-0.3-12.7,0h-90.5v7.1h127.3c9,0,17.9,2.9,24.9,8.5c2.6,2.1,4.7,4.3,6,6.5
			h69.8l0.7-15h0.3V373.4z"/>
		<polygon class="st28" points="274,475.4 238.9,475.4 273.9,475.4 		"/>
		<path class="st31" d="M322.4,409.6c5.5-0.6,9.7-2.4,12.3-3.8v19.3h-55.6h-40.2v-5.5c19.5,0.1,83.5-4.3,83.5-4.3L322.4,409.6
			L322.4,409.6z"/>
		<path class="st23" d="M247.8,472.2c-1.8-0.2-3.4-1.1-4.5-2.4c-0.9-1.1-1.5-2.4-1.6-3.8l-2.9-29.4v33.3v5.5h35L247.8,472.2z"/>
		<path class="st31" d="M334.7,456.1v19.3h-60.8l-26.1-3.2c-1.8-0.2-3.4-1.1-4.5-2.4c23.3-0.4,79-4.3,79-4.3v-5.7
			C327.9,459.2,332.1,457.4,334.7,456.1z"/>
		<path class="st26" d="M573.9,340.3h-4.8c0.1,1.2,0.2,2.4,0.2,3.5c-0.1,4.5-1.5,8.6-3.7,11.9c-1.2,1.8-3.3,2.9-5.4,2.9h-3.1v3.9
			c-0.4,0.1-0.9,0.3-1.3,0.4L555,363h2.1l0,0h15v-4.5l0,0l1.5-14.7L573.9,340.3z"/>
		<path class="st28" d="M569.2,340.3c0.1,1.2,0.2,2.4,0.2,3.5h-15.3v-3.5H569.2z"/>
		<polygon class="st32" points="573.9,340.3 573.9,343.8 573.6,343.8 		"/>
		<rect x="403.6" y="357.7" class="st25" width="55.1" height="5.3"/>
		<path class="st23" d="M286.5,272.7l-8.6-0.9l-4,3.4l0,0c0,0.3,0,0.7,0.1,1l-1.8-0.4l-7.2,7.8l0.4,5.5l7-7.2c1.2-1.3,3.3-1.3,4.5,0
			c0.1,0.1,0.3,0.3,0.4,0.4c1.5,1.2,3.4,1.9,5.5,1.9c3.4,0,6.4-1.9,7.9-4.8c0.5-0.9,0.8-2,1-3L286.5,272.7z"/>
		<path class="st24" d="M479.2,392.1h-60.7h-7.2h-60.7c-2.8,0-7.3,0.5-11.1,5h71.8h7.2h71.8C486.5,392.6,482,392.1,479.2,392.1z"/>
		<circle class="st29" cx="238.9" cy="313.9" r="1.8"/>
		<path class="st28" d="M233.8,316.1c0-3.4,2.8-6.2,6.2-6.2s6.2,2.8,6.2,6.2l-1.8-7.3l-5.9-2.5l-4.8,2.9l-1.9,4.3L233.8,316.1z"/>
		<path class="st30" d="M243.7,310.3c0.8,3.3-1.3,6.7-4.6,7.5s-6.7-1.3-7.5-4.6l3.4,6.7l6.3,1.1l4-3.9l0.8-4.7L243.7,310.3z"/>
		<path class="st30" d="M291.2,300.1l5.9-5.9l-1.7-3l-7.2,7.3c-0.1-0.1-0.1-0.1-0.2-0.2l-1.5,1.8l0,0l0,0l-0.9,1.1L285,302l2.8,1.2
			l6.1-0.5l3.3-3.1v-1.4C296.1,299.8,293.5,300.6,291.2,300.1z"/>
		<ellipse class="st23" cx="280.8" cy="277" rx="3.2" ry="2"/>
		<polygon class="st25" points="265.5,281.8 264.5,276.6 270.2,269.4 274.6,272.4 		"/>
		
			<ellipse transform="matrix(0.9208 -0.39 0.39 0.9208 -114.6225 131.8563)" class="st25" cx="267.4" cy="348.2" rx="3.9" ry="2.1"/>
		<path class="st23" d="M594.6,367c-0.1,0-0.1,0-0.2,0H227.9c-1.7,0-3.2,0.7-4.2,1.8c-1.1,1.1-1.8,2.6-1.8,4.2c0,1.1-2.2-9,1-9
			h366.5C591.7,364,593.6,365.2,594.6,367z"/>
		<rect x="562.3" y="374.7" class="st29" width="12.9" height="7"/>
		<path class="st31" d="M562.8,454.2c0,6.3,12.4,5.9,12.4-29c0,35.8,0,50.2,0,50.2H569h-6.2V454.2z"/>
		<path class="st31" d="M252.2,458.5c0,4.5,70.2,5.8,70.2-15.2c0,28.2,0,22.2,0,22.2h-70.2V458.5z"/>
		<path class="st31" d="M252.2,408.5c0,4.5,70.2,5.8,70.2-15.2c0,28.2,0,22.2,0,22.2h-70.2V408.5z"/>
		<path class="st23" d="M322.4,435.1h-71.1v2.8h-0.2l2.2,19.4l2.5-15.4c0.2-1.4,1.4-2.4,2.8-2.4h63.9L322.4,435.1L322.4,435.1z"/>
		<path class="st23" d="M322.4,384.9h-71.1v4.4l0.9,16.6l3.3-14.4c0.3-1.3,1.4-2.2,2.7-2.2h64.2L322.4,384.9L322.4,384.9z"/>
		<path class="st23" d="M335.2,425.8h-95.9v3.4l1.3,11.8l2-9.4c0.3-1.4,1.5-2.4,3-2.4h89.6V425.8z"/>
		<path class="st33" d="M328.2,352.6c0,3.8,21.1,5.7,21.1-9c0,10.2,0,14.7,0,14.7l-3.4,2.9h-15.8l-4.1-5l1.1-2.5L328.2,352.6z"/>
		<path class="st34" d="M384.3,347.7h-2.4c-3,0-5.6-1.6-7-4.1c-0.7-1.2-1-2.5-1-3.9v-7.3v-61c0-3.3,2.7-6,6-6h108c1.4,0,2.8,0.4,4,1
			c-1.4-2.4-4-4-7-4h-106c-4.4,0-8,3.6-8,8v59v7.3c0,3,1.6,5.6,4,6.9c1.2,0.7,2.5,1.1,4,1.1h2.4"/>
		<path class="st34" d="M489,271.6v51.2c0,1-0.8,1.7-1.7,1.7H378.7c-1.7,0-3-1.3-3-3l0,0H486v-52.9c0-0.2,0-0.5-0.1-0.7
			C487.7,268.3,489,269.8,489,271.6z"/>
		
			<ellipse transform="matrix(0.9798 -0.1999 0.1999 0.9798 -61.2695 108.5901)" class="st25" cx="507.1" cy="357.7" rx="5" ry="1.8"/>
		<path class="st35" d="M560.5,343.4h0.9c1.4,0,2.5,1.1,2.5,2.4v6c0,1.4-1.1,2.4-2.5,2.4l0,0c-1.2,0-2.2-0.9-2.4-2.1l-0.9-6
			C557.8,344.8,559,343.4,560.5,343.4z"/>
	</g>
	<g id="lines">
		<path class="st36" d="M297.5,296.4c0,4.1-3.3,7.4-7.4,7.4c-2,0-3.8-0.8-5.1-2.1l10.4-10.4C296.7,292.6,297.5,294.4,297.5,296.4z"
			/>
		<path class="st37" d="M243,308.3"/>
		<path class="st36" d="M266.5,272.8c-18.9-5.4-25.4,22.1-25.2,34.7"/>
		<path class="st36" d="M236.4,320.4c-1.4,12.4,9.6,12.3,17,12.6c10.6,0.4,16.9,2.8,16.9,12"/>
		<circle class="st38" cx="431.8" cy="336.7" r="3.2"/>
		<path class="st39" d="M277.6,450.3c5.8,0,11.7,0,17.5,0"/>
		<path class="st39" d="M277.6,400.1c5.8,0,11.7,0,17.5,0"/>
		<path class="st36" d="M483.3,267.9H380.4c-2.1,0-3.8,1.7-3.8,3.8v50.9H487v-50.9C487,269.6,485.3,267.9,483.3,267.9z"/>
		<line class="st36" x1="409" y1="357.7" x2="424.2" y2="357.7"/>
		<line class="st36" x1="429.1" y1="357.7" x2="431.8" y2="357.7"/>
		<line class="st36" x1="573.1" y1="347.3" x2="554.5" y2="347.3"/>
		<line class="st36" x1="572.8" y1="351.9" x2="554.8" y2="351.9"/>
		<line class="st36" x1="384.1" y1="375" x2="370.6" y2="388.5"/>
		<line class="st36" x1="391.9" y1="375" x2="384.8" y2="382.1"/>
		<line class="st36" x1="328.8" y1="425.2" x2="328.8" y2="436.1"/>
		<line class="st36" x1="507.7" y1="397.1" x2="512.6" y2="392.1"/>
		<path class="st36" d="M540.9,375"/>
		<path class="st40" d="M480.6,349.9l-0.3-3.8l-0.7-9.4l-19.1,1.4l1,13.2c0.2,2.1,2,3.7,4.1,3.5s3.7-2,3.5-4.1l7.7-0.6L480.6,349.9
			l3.8-0.3c0.2,2.1-1.4,3.9-3.5,4.1l-15.3,1.1"/>
		<path class="st40" d="M394.5,356.6l-14.2-1.9c-1.9-0.3-3.3-2-3-4l3.5,0.5l3.5,0.5l7.2,1C391.2,354.5,392.5,356.3,394.5,356.6
			s3.7-1.1,4-3l1.6-12.3l-17.7-2.4l-1.2,8.8l-0.5,3.5"/>
		<line class="st40" x1="463.9" y1="342.8" x2="477.1" y2="341.8"/>
		<line class="st40" x1="464.6" y1="347" x2="471.4" y2="346.5"/>
		<line class="st40" x1="473.2" y1="346.4" x2="477.3" y2="346"/>
		<g>
			<line class="st41" x1="460.1" y1="344.7" x2="399.3" y2="344.7"/>
			<path class="st41" d="M381.3,344.7h-2.4c-4.4,0-8-3.6-8-8v-7.3v-59c0-4.4,3.6-8,8-8h106c4.4,0,8,3.6,8,8v66.3c0,4.4-3.6,8-8,8
				h-5.5"/>
			<line class="st42" x1="492.8" y1="328" x2="370.8" y2="328"/>
			<path class="st42" d="M278.1,353.7h6c3.9,0,7.1,3.2,7.1,7.1v2.2h-43.7v-2.2c0-3.9,3.2-7.1,7.1-7.1h6"/>
			<path class="st42" d="M278.1,353.7h-17.5c0-4.8,3.9-8.8,8.8-8.8S278.1,348.8,278.1,353.7z"/>
			<path class="st42" d="M276,272.8l-9.6,9.6c-2.6-2.6-2.6-6.9,0-9.6C269.1,270.1,273.4,270.1,276,272.8z"/>
			<circle class="st42" cx="238.9" cy="313.9" r="7"/>
			<line class="st42" x1="265.7" y1="345.7" x2="241" y2="321.1"/>
			<path class="st42" d="M266.4,282.3c-2.1,5.7-0.9,12.4,3.7,17l8.6,8.6l6.2-6.2l10.4-10.4l6.2-6.2l-8.6-8.6
				c-3.2-3.1-7.3-4.7-11.4-4.7c-1.9,0-3.8,0.3-5.6,1"/>
			<line class="st42" x1="241.4" y1="307.4" x2="266.4" y2="282.3"/>
			<path class="st42" d="M342.5,362h-7.6c-4.5,0-8.2-3.7-8.2-8.2v-18.7h24v18.7C350.7,358.3,347,362,342.5,362z"/>
			<path class="st42" d="M588.3,375H225.8c-3.3,0-6-2.7-6-6l0,0c0-3.3,2.7-6,6-6h362.5c3.3,0,6,2.7,6,6l0,0
				C594.3,372.3,591.6,375,588.3,375z"/>
			<path class="st42" d="M350.7,353.7h2.2c1.8,0,3.4-0.7,4.6-1.9c1.2-1.2,1.9-2.8,1.9-4.6c0-3.6-2.9-6.5-6.5-6.5h-2.2"/>
			<rect x="238.9" y="375" class="st42" width="95.8" height="100.4"/>
			<line class="st42" x1="334.7" y1="425.2" x2="238.9" y2="425.2"/>
			<rect x="251.2" y="435.1" class="st42" width="71.1" height="30.4"/>
			<rect x="251.2" y="384.9" class="st42" width="71.1" height="30.4"/>
			<path class="st42" d="M442.6,344.7c1.6,7.3,5.3,12,12.1,12c1.5,0,2.8,0.7,3.8,1.8c1,1.2,1.6,2.7,1.6,4.5h-56.5
				c0-3.5,2.4-6.3,5.4-6.3c4.3,0,7.7-1.8,10.1-5c1.4-1.9,1.4-4.2,2-7"/>
			<rect x="562.8" y="375" class="st42" width="12.4" height="100.4"/>
			<rect x="334.8" y="375" class="st43" width="228" height="22.1"/>
			<path class="st42" d="M559.3,363h8.9c2,0,3.6-1.8,3.8-4.3l1.5-18.4H554l1.5,18.4C555.7,361.2,557.4,363,559.3,363z"/>
			<line class="st42" x1="214.9" y1="475.4" x2="608.1" y2="475.4"/>
			<line class="st42" x1="207.4" y1="475.4" x2="199.4" y2="475.4"/>
			<line class="st42" x1="615.1" y1="475.4" x2="615.1" y2="475.4"/>
			<path class="st42" d="M498.8,363c0.2-4.4,5.2-8,11.2-8s11,3.6,11.3,8"/>
			<line class="st42" x1="572.1" y1="323.6" x2="569.8" y2="340.3"/>
			<line class="st42" x1="562.9" y1="340.3" x2="562.9" y2="328.8"/>
		</g>
		<line class="st40" x1="384.3" y1="347.2" x2="392.9" y2="348.3"/>
		<line class="st40" x1="385" y1="343.5" x2="395.5" y2="344.9"/>
		<line class="st36" x1="283.1" y1="295.5" x2="283.1" y2="295.5"/>
		<line class="st36" x1="280.6" y1="298" x2="274.9" y2="303.8"/>
	</g>
</g>
<g id="bean_bag">
	<g id="beanbag_color">
		<g>
			<g id="XMLID_1_">
				<g>
					<path class="st44" d="M276.4,449.8c0-1.1-0.2-2.2-0.3-3.3c-0.2-1.7-0.5-3.4-1-5.1c-4.9-18.1-22.4-34.8-41.9-44.4
						c-6.9-3.4-12.5-7.4-17.4-11.6c-2-1.8-3.8-3.6-5.5-5.4c-7.2-7.6-12.1-15.6-17-22.7c-0.9-1.4-1.9-2.7-2.9-4
						c-3.8-5.3-7.9-9.7-12.8-12.6l0,0c4.7-2,10.5-3.4,16.3-2.4c11.3,1.9,29.6,26.1,47.5,45.1c17.9,19.1,64.2,30.7,61.5,57.5
						c-2,15.5-9.3,26.6-19.5,34.2h-15.8C274.2,466.7,276.8,458.3,276.4,449.8z"/>
					<path class="st44" d="M276.4,449.8c0.4,8.4-2.3,17-8.9,25.1h-7.9h-64.4h-5h-7.9c-27.2-19.6-17.1-89.7-15.6-99.6
						c0.1-0.7,0.2-1.4,0.2-2.1l0,0c0.1-1.6-0.1-3.1-0.2-4.7c-1-8.1-4.3-16.4,1.6-22.1c1.5-1.5,5-3.9,9.3-5.8l0,0
						c5.1,2.9,9,7.3,12.8,12.6c0.9,1.3,1.9,2.6,2.9,4c4.8,7.1,9.9,15.1,17,22.7c1.7,1.9,3.6,3.7,5.5,5.4c4.8,4.2,10.5,8.2,17.4,11.6
						c19.4,9.7,37,26.3,41.9,44.4c0.5,1.7,0.8,3.4,1,5.1C276.3,447.6,276.4,448.7,276.4,449.8z"/>
				</g>
			</g>
		</g>
	</g>
	<g id="shadows_2_">
		<path class="st45" d="M164.8,356.1c7.1,15.6,15.5,28,31.4,23.2c-59.9,89.3,88.1,108.2,106.3,58.7c4.1,18.6-18.1,37-18.1,37H180.4
			c0,0-25.1-21.3-15.8-88.3C167.6,367.5,164.8,356.1,164.8,356.1z"/>
		<path class="st45" d="M166.8,371.4c3.9,6.2,13.7,14,29.3,7.9c-7.4,11.9-23.8,12-31.6,7.3C165.8,381.3,166.8,371.4,166.8,371.4z"/>
		<path class="st46" d="M164.5,353.2c3.7-6.8,23.4-15.9,37-6.3c10.9,7.8,37.9,53.9,81.3,64.1c-29.7-15-58.6-45.2-64.8-53.8
			c-12.8-12.6-24.4-26.8-42.2-15.8C168.2,346.4,165.3,348.8,164.5,353.2z"/>
		<path class="st46" d="M189,352.7c6.1,12.5,17.3,27.8,25.8,35.8c8.5,8,44.2,20.2,58.5,49.4c-9.9-25.2-32.1-35.2-36.3-38.1
			c-4.2-2.9-20.5-9.7-30-23C197.4,363.7,189,352.7,189,352.7z"/>
		<path class="st45" d="M163.6,417.9c2.5,26.2,8.8,38.8,12.2,24.4c1.4,9,9.3,16.7,11.3,10.4c6.3,15.4,69.3,21.6,78.5,11.9
			c0.6,1.9,4.9,4.1,9.2-2.6c-0.3,6.5,17,6.5,22.7-3.5c-7.9,13.2-13.2,16.4-13.2,16.4h-102C182.2,474.9,163.9,466,163.6,417.9z"/>
		<ellipse transform="matrix(0.5362 -0.8441 0.8441 0.5362 -220.48 429.4348)" class="st46" cx="280.5" cy="415.3" rx="2" ry="5"/>
		
			<ellipse transform="matrix(0.5362 -0.8441 0.8441 0.5362 -221.115 419.681)" class="st46" cx="271.3" cy="411" rx="1.3" ry="3.1"/>
	</g>
	<g id="beanbag">
		<g>
			<path class="st42" d="M182.2,474.9h101.1c10.2-7.6,17.5-18.7,19.5-34.2c2.7-26.8-43.6-38.5-61.5-57.5s-36.2-43.1-47.5-45.1
				c-11.3-1.9-22.6,5.2-25.7,8.3c-7.6,7.4,0,19-1.6,29C165.1,385.3,155,455.3,182.2,474.9z"/>
			<path class="st42" d="M177.6,340.6c17.8,10.2,22.2,39.8,55.7,56.4c31.2,15.5,57.7,49.2,34.3,78"/>
			<line class="st42" x1="188.8" y1="354.3" x2="192.3" y2="352"/>
			<line class="st42" x1="191.3" y1="358.4" x2="195.4" y2="356.1"/>
			<line class="st42" x1="215.3" y1="387.9" x2="216.5" y2="382.5"/>
			<line class="st42" x1="213.3" y1="379.3" x2="208.2" y2="380.4"/>
			<line class="st42" x1="274.5" y1="449.8" x2="279.3" y2="449.8"/>
			<line class="st42" x1="273.4" y1="446.5" x2="279.3" y2="446.5"/>
			<line class="st42" x1="272.3" y1="442.3" x2="278.4" y2="440.3"/>
			<path class="st42" d="M175.8,442.3c0,12,9,28.7,14.4,32.6"/>
			<path class="st42" d="M187.1,452.7c0,7.2,4.7,21.1,8,22.2"/>
			<path class="st42" d="M265.5,464.6c-1.3,4.7-3.9,8.6-6,10.3"/>
			<path class="st42" d="M166.6,368.5c2.4,7.2,7.2,10,11.5,11.8"/>
			<path class="st42" d="M166.8,373.2c0.5,4.5,2.3,8,5.5,9.2"/>
			<line class="st42" x1="182.2" y1="474.9" x2="166.7" y2="474.9"/>
			<line class="st42" x1="161.2" y1="474.9" x2="158.1" y2="474.9"/>
		</g>
		<line class="st47" x1="176.2" y1="437.4" x2="176.4" y2="434.1"/>
	</g>
</g>
<rect x="192.5" y="246.8" class="st48" width="27.2" height="13.6"/>
<rect x="206.1" y="233.2" class="st48" width="27.2" height="13.6"/>
<line class="st48" x1="219.7" y1="260.5" x2="226" y2="260.5"/>
<line class="st48" x1="192.4" y1="260.5" x2="187.2" y2="260.5"/>
<rect x="178.9" y="233.2" class="st48" width="27.2" height="13.6"/>
<line class="st48" x1="178.8" y1="246.9" x2="173.5" y2="246.9"/>
<rect x="278.5" y="103.8" class="st48" width="27.2" height="13.6"/>
<rect x="292.1" y="90.2" class="st48" width="27.2" height="13.6"/>
<line class="st48" x1="305.7" y1="117.5" x2="312" y2="117.5"/>
<line class="st48" x1="278.4" y1="117.5" x2="273.2" y2="117.5"/>
<rect x="264.9" y="90.2" class="st48" width="27.2" height="13.6"/>
<line class="st48" x1="264.8" y1="103.9" x2="259.5" y2="103.9"/>
<rect x="518.5" y="113.8" class="st48" width="27.2" height="13.6"/>
<rect x="532.1" y="100.2" class="st48" width="27.2" height="13.6"/>
<line class="st48" x1="545.7" y1="127.5" x2="552" y2="127.5"/>
<line class="st48" x1="518.4" y1="127.5" x2="513.2" y2="127.5"/>
<rect x="504.9" y="100.2" class="st48" width="27.2" height="13.6"/>
<line class="st48" x1="504.8" y1="113.9" x2="499.5" y2="113.9"/>
<rect x="598.5" y="233.8" class="st48" width="27.2" height="13.6"/>
<rect x="612.1" y="220.2" class="st48" width="27.2" height="13.6"/>
<line class="st48" x1="625.7" y1="247.5" x2="632" y2="247.5"/>
<line class="st48" x1="598.4" y1="247.5" x2="593.2" y2="247.5"/>
<rect x="584.9" y="220.2" class="st48" width="27.2" height="13.6"/>
<line class="st48" x1="584.8" y1="233.9" x2="579.5" y2="233.9"/>
</svg>
